<svg xmlns="http://www.w3.org/2000/svg"
  viewBox="0 0 1248.000000 832.000000"
 preserveAspectRatio="xMidYMid meet">
<g transform="translate(0.000000,832.000000) scale(0.100000,-0.100000)"
fill="currentColor" stroke="none">
<path d="M9295 7779 c-302 -4 -714 -10 -915 -13 -201 -3 -1071 -8 -1934 -12
l-1569 -7 7 -531 c3 -292 9 -866 12 -1275 l6 -744 -88 79 c-48 43 -142 129
-208 189 -67 61 -168 153 -226 205 -58 51 -107 96 -110 100 -3 3 -106 97 -230
209 -124 113 -275 253 -336 312 -118 114 -112 111 -237 124 -58 5 -127 -14
-127 -36 0 -12 -741 -832 -1016 -1124 -78 -82 -197 -211 -265 -286 -312 -344
-631 -692 -714 -779 -96 -101 -250 -269 -331 -360 -27 -30 -78 -86 -115 -125
-36 -38 -97 -104 -136 -145 -39 -41 -73 -86 -76 -100 -4 -14 -15 -35 -27 -47
-25 -28 -26 -37 0 -23 19 10 20 8 20 -49 0 -54 3 -62 29 -83 42 -34 408 -359
461 -409 25 -23 124 -112 220 -198 96 -85 243 -216 325 -291 83 -74 184 -164
225 -200 41 -36 124 -110 185 -165 61 -55 144 -129 185 -165 74 -64 138 -122
235 -211 27 -26 93 -84 145 -129 52 -45 122 -108 155 -140 33 -31 74 -67 90
-79 41 -31 334 -292 367 -327 15 -16 40 -44 57 -62 17 -18 31 -37 31 -42 0 -6
6 -9 13 -8 6 2 11 -3 9 -10 -1 -8 2 -10 8 -7 13 8 52 -24 44 -36 -3 -5 4 -9
14 -9 49 0 47 -28 -6 -79 -43 -42 -49 -51 -37 -61 8 -7 15 -8 15 -3 0 13 61
78 88 92 16 9 22 9 22 0 0 -6 7 -8 17 -5 13 5 12 1 -5 -17 l-23 -24 25 4 c14
3 28 14 31 24 7 21 14 23 35 9 13 -9 12 -13 -7 -29 -22 -18 -33 -48 -15 -37 5
3 19 -4 31 -15 12 -12 25 -18 29 -15 3 4 -4 14 -17 22 -17 13 -20 19 -10 30
16 19 32 18 62 -6 38 -30 41 -24 6 13 l-31 32 28 3 c16 2 42 8 57 14 27 10 27
11 8 25 -19 13 -19 49 0 37 5 -3 9 1 9 8 0 13 47 63 65 68 6 2 19 18 30 36 34
55 369 417 378 408 3 -3 15 9 27 25 12 17 18 31 14 31 -4 0 5 13 21 30 15 16
33 27 38 23 6 -3 7 -1 3 5 -4 7 -4 12 1 12 4 0 19 10 33 21 l25 21 -30 -17
-30 -18 34 37 c35 36 48 46 35 24 -4 -7 -3 -8 4 -4 7 4 12 14 12 22 0 8 4 14
9 14 5 0 13 9 16 21 4 13 12 18 21 15 8 -3 13 -2 10 3 -3 5 1 12 10 15 8 3 12
10 9 16 -3 5 0 7 9 4 9 -3 19 3 26 18 11 22 10 22 -4 4 -9 -11 -16 -16 -16
-11 0 5 19 26 42 47 23 21 39 38 35 38 -4 0 7 16 24 35 18 19 36 32 42 28 6
-3 7 -1 3 5 -4 7 -1 12 9 12 9 0 14 4 10 9 -3 6 12 28 34 51 22 23 42 49 46
58 5 14 7 14 16 2 9 -13 10 -12 5 2 -5 17 9 35 17 21 2 -5 3 -3 1 3 -1 7 9 22
24 35 21 19 23 19 9 3 -9 -11 -17 -25 -17 -30 0 -4 8 3 17 16 10 14 17 27 16
30 -1 3 13 22 30 41 18 19 25 26 17 15 -15 -21 -15 -21 7 -2 13 10 20 22 18
26 -3 4 13 24 35 44 22 20 40 39 40 42 0 5 169 193 237 264 l24 25 -3 -118
c-2 -64 0 -117 4 -117 3 0 28 28 55 61 26 34 63 77 81 95 17 18 36 43 41 56 6
15 10 -115 10 -369 0 -216 -4 -393 -7 -393 -4 0 -6 -75 -4 -167 2 -92 0 -164
-4 -160 -4 3 -16 1 -27 -5 -20 -10 -20 -11 -2 -25 16 -11 17 -17 8 -32 -10
-16 -9 -20 10 -25 20 -5 22 -10 19 -63 -3 -42 -1 -55 7 -48 6 6 12 30 13 53 1
25 6 42 13 42 15 0 21 -28 20 -95 l0 -50 -38 -1 c-33 -1 -58 -10 -46 -16 2 -2
40 0 84 3 44 3 65 6 48 7 l-33 2 0 60 c0 48 4 62 17 67 15 6 15 7 -3 14 -17 7
-16 8 6 9 14 1 34 3 44 5 92 17 349 23 561 12 175 -9 338 -10 359 -1 10 4 165
4 345 -1 179 -4 394 -6 476 -4 83 2 186 3 230 2 334 -5 391 -8 397 -17 5 -8 8
-7 8 1 0 8 93 10 373 7 204 -2 586 -6 847 -8 261 -3 585 -7 720 -10 135 -3
547 -8 915 -11 369 -4 689 -8 712 -10 23 -2 45 0 48 6 4 5 11 7 16 4 5 -4 9 0
9 8 0 20 40 59 56 53 8 -3 11 0 8 9 -4 9 39 59 115 133 l120 120 2 451 c0 248
5 449 9 446 5 -3 11 -1 15 5 3 5 1 10 -4 10 -6 0 -11 6 -11 13 0 7 -75 88
-168 180 l-167 167 -965 10 c-531 5 -1140 11 -1355 14 -214 3 -671 8 -1015 11
-875 7 -2472 18 -2492 17 -10 0 -15 5 -12 12 4 10 -3 12 -23 9 -22 -4 -25 -2
-13 6 8 6 11 11 7 11 -5 0 17 24 48 54 33 33 52 57 45 61 -11 7 2 23 108 140
141 155 359 390 445 479 l57 60 0 74 0 74 60 -4 c33 -2 60 -1 60 4 0 4 -25 8
-56 8 -39 0 -53 3 -48 11 5 8 -1 10 -19 7 -15 -3 -24 -1 -21 3 3 5 -3 9 -14 9
-21 0 -49 30 -76 83 -11 20 -23 37 -28 37 -5 0 -6 5 -3 10 4 7 13 7 26 0 15
-8 19 -8 17 2 -3 14 28 15 72 3 20 -5 22 -4 10 4 -11 8 509 11 1920 10 1414
-1 1937 -5 1942 -13 4 -6 8 3 7 19 0 88 12 2142 17 2898 l7 877 -224 -2 c-123
-1 -471 -5 -774 -9z m538 -19 c7 0 3 -7 -7 -15 -29 -22 -431 -22 -440 0 -4 13
24 15 202 17 114 2 213 2 220 1 8 -2 19 -3 25 -3z m437 -205 l0 -215 -46 0
-46 0 3 168 3 167 -157 -3 -157 -2 0 44 0 45 53 4 c28 2 118 4 200 5 l147 2 0
-215z m-920 161 c0 -54 -4 -56 -162 -56 -64 0 -119 -4 -122 -9 -3 -4 -6 -186
-6 -405 -1 -377 -2 -396 -20 -396 -10 0 -20 7 -24 15 -3 8 -12 15 -21 15 -22
0 -18 27 5 33 20 5 20 14 20 376 l0 371 -194 0 -193 0 -1 45 -1 45 252 3 c139
1 300 3 360 5 l107 2 0 -44z m-750 20 c0 -21 -47 -26 -250 -26 -179 0 -188 1
-193 20 -5 20 0 20 219 20 183 0 224 -2 224 -14z m-1482 -13 c-3 -17 -20 -18
-242 -21 -185 -2 -241 1 -247 10 -9 14 64 19 364 26 120 3 129 2 125 -15z
m1010 -28 l-1 -45 -163 0 -164 0 0 -195 c0 -188 -1 -195 -20 -195 -19 0 -20 7
-20 196 l0 196 -305 -7 -305 -7 0 50 0 50 490 2 489 1 -1 -46z m-2833 26 c3
-5 -2 -17 -11 -25 -8 -9 -11 -16 -6 -16 5 0 12 -9 15 -20 5 -19 0 -20 -149
-20 l-154 0 0 -170 c0 -163 -1 -170 -20 -170 -11 0 -20 6 -21 13 0 10 -2 10
-6 0 -2 -7 -13 -13 -24 -13 -18 0 -19 10 -19 215 l0 215 194 0 c108 0 197 -4
201 -9z m485 -6 c0 -13 -29 -15 -197 -16 -109 -1 -205 -2 -213 -3 -8 -1 -23 2
-32 7 -48 22 -6 27 212 27 198 0 230 -2 230 -15z m820 -30 l0 -45 -225 0 -225
0 0 -371 c0 -307 2 -373 14 -385 11 -11 16 -11 19 -1 3 6 6 2 6 -10 1 -17 -5
-23 -19 -23 -11 0 -20 -6 -20 -14 0 -8 -8 -13 -17 -12 -17 3 -18 32 -23 407
l-5 404 -130 1 c-71 1 -137 2 -147 3 -13 1 -16 11 -16 46 l0 45 394 0 394 0 0
-45z m3223 7 c24 -3 21 -22 -4 -22 -11 0 -17 -4 -14 -10 4 -6 76 -10 182 -10
l176 0 -6 -576 c-2 -316 -6 -577 -8 -579 -2 -1 -174 -6 -381 -10 l-377 -8 2
-36 2 -36 335 -2 c184 -1 354 -2 378 -3 l42 0 0 -401 c-1 -221 -4 -415 -7
-430 l-5 -29 -373 0 -373 0 -4 -37 c-3 -21 -3 -40 -1 -43 2 -2 154 -3 337 -1
183 1 352 0 377 -4 l44 -7 0 -641 c-1 -520 -3 -641 -14 -645 -11 -4 -11 -6 0
-13 8 -5 -218 -9 -523 -9 l-538 0 0 320 0 320 -40 0 c-22 0 -43 -1 -46 -2 -4
-2 -6 -47 -5 -100 2 -67 -1 -98 -9 -98 -6 0 -8 5 -4 11 4 8 0 7 -15 -1 -33
-17 -27 -96 7 -94 22 1 22 -1 22 -116 0 -64 -3 -145 -6 -179 l-7 -61 -176 0
c-124 0 -181 4 -189 12 -9 9 -12 9 -12 0 0 -7 -11 -12 -25 -12 -20 0 -25 5
-26 28 l-2 27 -4 -27 -4 -28 -160 0 -159 0 0 180 0 180 225 0 225 0 0 40 c0
25 -5 40 -12 40 -7 0 -214 1 -461 1 -246 1 -450 -1 -454 -5 -3 -3 13 -6 37 -6
85 0 30 -11 -96 -19 l-129 -8 135 -3 c215 -4 103 -17 -160 -18 -242 -1 -348 8
-215 19 l70 5 -72 2 c-70 2 -98 16 -50 25 12 2 -155 5 -370 6 l-393 1 0 -40
c0 -36 3 -40 25 -40 25 0 25 -1 26 -82 1 -67 3 -76 9 -44 4 21 5 47 3 57 -10
36 6 69 32 69 14 0 25 -6 26 -12 0 -10 2 -10 6 0 2 6 11 12 19 12 12 0 14 -30
14 -170 l0 -170 -50 0 c-50 0 -50 0 -51 33 -1 19 -3 24 -6 12 -14 -65 -14 -65
-162 -65 -201 1 -195 -9 -192 298 1 60 2 62 27 62 36 0 33 73 -3 78 -24 4 -23
-4 -27 157 l-1 40 -44 0 -43 0 1 -112 c2 -87 -1 -113 -11 -113 -10 0 -10 -2 1
-9 12 -8 11 -269 -1 -378 -3 -32 -47 -6 -150 90 -61 56 -155 142 -210 190 -61
54 -96 93 -92 100 4 7 4 9 -1 5 -8 -7 -129 96 -330 283 -103 96 -169 156 -203
184 -17 15 -29 32 -25 37 3 6 2 9 -3 6 -5 -3 -18 3 -29 14 -19 19 -19 19 3 25
12 3 19 9 17 14 -3 4 228 8 514 9 517 1 519 1 514 -20 -5 -18 -1 -20 41 -20
32 0 48 5 52 15 4 8 15 15 25 15 27 0 28 77 2 87 -10 4 -22 12 -28 19 -20 25
-85 21 -92 -5 -4 -17 -9 -18 -31 -10 -18 7 -28 7 -30 0 -6 -17 -329 -15 -336
2 -5 10 -7 10 -12 0 -9 -20 -91 -17 -103 5 -9 16 -10 16 -16 0 -8 -20 -55 -25
-55 -7 0 8 -4 8 -13 1 -8 -7 -83 -11 -204 -11 l-190 -1 -36 28 -35 27 -6 270
c-4 149 -5 398 -4 555 l3 284 387 1 c414 0 416 0 404 49 -5 21 -13 26 -36 26
-20 0 -30 5 -30 15 0 8 -4 15 -10 15 -5 0 -10 -7 -10 -15 0 -13 -46 -15 -354
-15 l-353 0 -6 228 c-3 125 -5 390 -6 589 l-1 361 52 4 c81 7 1008 2 1015 -6
14 -14 16 -696 2 -696 -10 0 -10 -3 -1 -12 7 -7 12 -31 12 -55 l0 -43 45 0
c33 0 45 4 45 15 0 8 7 15 15 15 10 0 15 10 15 34 0 19 6 37 13 39 6 3 0 6
-14 6 -26 1 -26 2 -32 99 -4 53 -7 211 -7 350 l0 252 31 0 c16 0 220 2 452 5
232 3 572 7 755 9 l332 4 0 -194 0 -194 40 0 40 0 0 195 0 195 163 1 c89 1
173 5 187 9 l25 8 -25 1 c-24 2 -24 2 -6 16 29 22 436 22 436 0 0 -12 -29 -15
-177 -18 l-178 -2 182 -3 c100 -1 183 -6 185 -10 2 -5 35 -5 73 -1 39 4 125 8
193 8 l122 1 0 -165 c0 -150 -2 -165 -17 -166 -16 -1 -16 -2 -1 -6 12 -3 16
-13 13 -41 -2 -20 -3 -103 -4 -184 -1 -142 -2 -148 -22 -148 -18 0 -20 -5 -17
-42 3 -38 6 -43 25 -41 14 2 22 -2 20 -10 -1 -8 13 -13 41 -15 l42 -3 1 385
c1 212 3 391 4 396 1 6 3 17 4 25 1 12 23 15 134 16 118 0 264 15 184 18 -18
1 -27 6 -25 14 6 16 329 30 441 19z m-2707 -35 c18 -18 -23 -22 -252 -25 -209
-2 -244 0 -244 12 0 11 17 16 68 19 108 7 420 2 428 -6z m-1336 -12 c11 -13
-15 -15 -224 -15 -215 0 -249 3 -229 23 15 16 440 8 453 -8z m4420 -558 c0
-222 -7 -320 -21 -311 -11 6 -12 225 -2 406 10 196 23 141 23 -95z m68 -39
c-3 -226 -5 -263 -18 -263 -13 0 -15 33 -12 250 3 257 4 275 22 275 7 0 9 -84
8 -262z m-5334 190 c14 -72 7 -478 -9 -478 -12 0 -15 15 -15 78 0 44 -3 161
-7 261 -5 161 -4 181 9 176 9 -4 19 -20 22 -37z m66 -235 c0 -236 -11 -321
-24 -185 -8 90 -8 437 1 445 18 18 23 -37 23 -260z m5260 -503 l0 -250 -43 0
-44 0 1 88 1 87 -377 -3 c-374 -3 -378 -2 -378 18 0 20 5 20 364 20 200 0 371
3 380 6 14 5 16 27 16 139 l0 134 33 4 c17 2 35 5 40 5 4 1 7 -110 7 -248z
m-5309 183 l1 -38 8 33 c22 95 40 40 40 -125 l0 -143 350 0 c306 0 349 -2 344
-15 -5 -13 -54 -15 -350 -15 l-344 0 0 -120 c0 -100 -2 -120 -15 -120 -10 0
-15 10 -16 28 l-1 27 -10 -27 c-12 -34 -33 -36 -42 -5 -3 12 -6 142 -6 290 0
260 0 267 20 267 16 0 20 -7 21 -37z m839 -288 c0 -11 -11 -15 -36 -15 -31 0
-35 2 -24 15 7 8 23 15 36 15 15 0 24 -6 24 -15z m-2247 -13 c50 -9 173 -117
157 -137 -6 -8 -19 -11 -28 -8 -14 4 -14 3 -3 -5 12 -9 12 -13 -2 -26 -14 -15
-20 -12 -67 31 -87 81 -141 86 -206 22 l-42 -41 -31 27 -30 28 19 27 c55 77
74 90 137 89 32 0 75 -3 96 -7z m51 -170 c70 -67 134 -117 141 -110 3 2 -8 17
-24 32 -29 28 -33 60 -6 50 9 -4 12 0 8 14 -10 40 19 33 80 -21 183 -161 222
-203 208 -221 -11 -13 -17 -14 -30 -4 -13 10 -14 10 -4 -2 9 -10 10 -17 2 -27
-9 -10 -21 -5 -60 28 -40 33 -52 39 -64 29 -16 -13 -151 -153 -239 -247 l-59
-63 54 -47 c30 -27 100 -90 156 -140 56 -51 106 -93 111 -93 5 0 72 68 148
150 121 131 165 170 164 143 -1 -5 -65 -77 -144 -162 -79 -85 -142 -160 -139
-165 3 -6 39 -41 81 -78 43 -37 108 -96 145 -130 l69 -62 46 50 c26 27 94 100
152 163 l105 114 -105 96 c-58 53 -132 122 -165 153 l-60 56 33 31 32 31 98
-87 c95 -86 388 -354 504 -463 57 -53 59 -57 63 -113 2 -32 -1 -57 -5 -55 -5
2 -90 76 -189 166 -99 89 -183 162 -186 162 -7 0 -1 7 -129 -135 -55 -61 -116
-127 -135 -148 l-35 -37 76 -78 77 -77 -103 -109 c-66 -72 -105 -106 -110 -98
-4 7 28 48 84 106 67 69 89 99 83 109 -4 8 -66 68 -138 133 -436 396 -665 607
-665 614 0 4 70 82 155 173 158 170 166 180 139 191 -8 3 -13 2 -9 -3 5 -9
-31 -48 -258 -289 l-69 -74 59 -51 c32 -29 139 -126 238 -217 99 -91 257 -235
350 -319 94 -85 171 -157 173 -160 1 -4 -39 -51 -89 -105 l-92 -97 26 -27 c27
-26 27 -26 45 -7 11 11 63 69 117 129 l99 109 -35 30 c-73 64 -119 108 -119
115 0 13 262 293 271 290 9 -3 90 -75 266 -236 l113 -104 0 -47 c0 -47 -2 -51
-86 -137 -48 -49 -86 -92 -86 -95 1 -3 -46 -57 -104 -120 -58 -63 -118 -130
-134 -150 l-29 -36 29 -28 29 -27 63 68 c34 38 100 107 145 154 44 47 93 100
108 118 15 17 31 30 36 26 5 -3 9 2 9 11 0 9 5 13 10 10 6 -4 10 -141 10 -379
l0 -373 -30 5 c-16 2 -30 0 -30 -4 0 -5 21 -9 47 -8 70 1 136 -64 98 -96 -8
-7 -15 -19 -15 -28 0 -13 2 -13 18 1 10 10 26 17 35 17 19 0 13 23 -12 50 -9
9 -24 27 -34 39 l-18 23 50 -5 c28 -3 57 -10 65 -16 10 -8 16 -8 26 3 10 13
78 15 462 15 l451 -1 54 -50 c29 -28 53 -58 53 -67 0 -9 12 -25 26 -36 24 -18
24 -20 7 -27 -11 -5 -6 -6 14 -2 27 5 38 -1 77 -36 56 -52 62 -40 -101 -217
-71 -76 -141 -154 -157 -173 -16 -19 -83 -93 -150 -163 -66 -71 -142 -151
-168 -179 l-47 -51 -73 2 c-87 3 -57 -18 -388 281 -327 297 -380 348 -380 367
0 9 -3 13 -7 10 -3 -4 -15 1 -25 10 -17 16 -22 16 -46 2 -34 -19 -50 -79 -20
-79 12 0 17 -4 12 -12 -5 -8 -2 -9 9 -5 18 7 53 -24 427 -367 237 -217 241
-221 215 -212 -14 5 -9 -4 15 -27 19 -18 38 -32 43 -30 4 2 7 -1 7 -6 0 -6 6
-11 13 -11 8 0 14 -6 15 -12 0 -7 4 -23 7 -35 5 -15 3 -23 -4 -23 -7 0 -9 -4
-6 -10 7 -12 -10 -12 -82 -4 -52 7 -52 7 -48 38 4 37 -5 107 -14 102 -3 -2 -5
-45 -3 -96 3 -76 6 -89 16 -75 16 22 78 12 69 -11 -3 -7 -9 -12 -13 -9 -5 3
-11 1 -14 -3 -3 -5 -17 -7 -31 -4 -23 4 -25 2 -25 -37 0 -27 4 -40 11 -36 6 4
8 13 5 20 -4 13 28 28 38 18 8 -8 -27 -73 -40 -73 -6 0 -15 -11 -18 -24 -5
-22 -220 -268 -347 -396 -30 -31 -77 -80 -105 -110 -28 -30 -62 -63 -75 -73
-13 -10 -17 -15 -9 -11 8 4 -3 -12 -25 -37 -24 -27 -43 -40 -47 -34 -5 6 -8 1
-9 -10 0 -13 -3 -15 -6 -6 -4 9 -7 10 -12 2 -5 -8 -20 0 -46 21 -82 71 -238
209 -395 352 -91 83 -176 160 -190 172 -126 110 -145 132 -132 153 13 22 4 29
-15 10 -8 -8 -16 -7 -31 2 -22 14 -78 -2 -68 -20 3 -5 -1 -14 -9 -21 -21 -17
-19 -29 7 -50 16 -12 28 -15 39 -9 13 6 56 -28 195 -153 521 -468 579 -523
569 -537 -3 -6 -1 -11 5 -11 20 0 5 -17 -196 -236 -12 -12 -25 -20 -30 -16 -4
4 -4 2 -1 -4 4 -7 0 -17 -7 -24 -12 -9 -26 -1 -73 42 -32 29 -92 82 -133 118
-81 71 -283 252 -343 309 l-37 35 -27 -26 -27 -27 59 -53 c33 -29 117 -106
187 -172 71 -65 168 -153 216 -195 107 -94 109 -104 42 -173 -29 -29 -61 -66
-73 -82 -12 -16 -49 -58 -83 -95 -33 -36 -82 -91 -110 -121 -79 -88 -154 -163
-154 -155 0 5 -16 -13 -36 -38 -20 -26 -41 -44 -47 -40 -6 4 -7 1 -2 -6 8 -14
-33 -63 -46 -55 -5 3 -9 0 -9 -5 0 -6 -9 -11 -21 -11 -13 0 -18 4 -13 12 5 7
3 8 -5 3 -15 -9 -83 53 -74 68 3 6 1 7 -5 3 -6 -3 -15 2 -21 11 -5 10 -11 16
-13 13 -6 -9 -127 87 -243 193 -21 20 -41 34 -43 32 -4 -3 97 -102 176 -170
42 -37 45 -65 6 -65 -7 0 -16 -5 -20 -12 -5 -7 -3 -8 7 -3 12 8 12 6 1 -8 -12
-15 -16 -14 -45 12 -18 15 -75 65 -127 111 -121 106 -220 202 -220 213 0 5 11
22 25 38 l24 30 83 -72 c63 -54 49 -37 -62 73 -80 79 -148 142 -151 141 -18
-7 -41 37 -33 61 9 25 188 229 326 370 67 68 78 88 58 101 -6 4 -7 11 -4 17 4
7 2 8 -4 4 -7 -4 -12 -2 -12 3 0 6 -3 10 -7 9 -5 0 -15 2 -24 6 -24 10 -69
-35 -55 -56 7 -12 -29 -57 -169 -209 -98 -107 -183 -195 -190 -197 -6 -1 -34
21 -63 50 -28 29 -57 58 -64 63 -63 51 -224 189 -268 231 -93 88 -108 102
-122 107 -10 3 -7 12 10 35 31 43 28 51 -8 17 l-30 -29 -27 25 c-16 14 -77 70
-138 124 -60 55 -112 103 -113 107 -2 5 54 70 125 146 70 76 154 166 186 200
l57 63 78 -68 c42 -37 122 -109 177 -159 55 -49 120 -108 145 -130 24 -21 69
-62 100 -89 104 -94 94 -90 125 -61 15 14 24 29 21 35 -5 8 68 104 121 159 7
7 13 16 13 19 0 4 -37 -30 -82 -75 -77 -77 -83 -81 -100 -66 -22 21 -17 28
114 167 92 97 93 98 116 81 l24 -16 -28 -29 c-35 -36 -25 -49 10 -14 20 20 32
24 49 19 19 -6 20 -5 9 9 -11 13 -10 16 7 22 35 11 24 28 -67 108 -129 112
-138 123 -121 143 13 16 12 16 -8 6 -22 -12 -69 24 -263 202 -61 56 -190 170
-260 232 -25 21 -52 46 -60 54 -39 41 -232 210 -239 210 -4 0 -17 -11 -30 -23
-24 -27 -20 -53 11 -63 12 -4 17 -11 14 -21 -5 -11 -2 -13 10 -9 10 4 30 -6
54 -28 l37 -34 -114 -126 -114 -126 -35 26 c-33 26 -37 33 -35 64 0 8 -11 23
-24 33 -26 18 -26 18 -57 -15 -17 -18 -117 -126 -221 -241 -105 -114 -194
-206 -198 -205 -4 2 -51 44 -104 93 -54 50 -105 94 -113 99 -20 11 -303 266
-389 349 -34 33 -68 64 -77 69 -10 6 -16 23 -16 49 0 35 8 47 74 117 40 42 75
82 77 89 2 6 74 87 159 179 162 176 185 199 266 276 l49 48 65 -56 c36 -31 83
-73 105 -93 58 -52 317 -282 337 -299 14 -11 19 -11 37 5 31 26 25 43 -27 87
-76 62 -462 408 -462 414 0 5 28 38 159 182 171 189 206 226 275 301 39 41 80
87 91 101 11 14 56 65 100 113 44 48 85 93 90 99 6 7 30 35 55 62 25 27 13 18
-25 -21 -39 -38 -112 -115 -163 -169 -62 -66 -96 -96 -103 -89 -12 12 20 52
180 223 64 69 133 142 152 163 25 28 38 35 49 27 12 -7 10 -14 -15 -40 -16
-16 -25 -30 -19 -30 10 0 67 58 238 243 60 64 112 117 117 117 12 0 182 -151
809 -721 184 -168 350 -319 368 -337 30 -29 72 -46 57 -23 -3 6 2 14 11 19 10
6 15 16 11 25 -3 9 1 21 9 27 19 17 18 29 -8 51 -19 17 -23 18 -38 4 -9 -8
-20 -15 -24 -15 -7 0 -320 280 -531 475 -66 61 -232 212 -368 334 l-249 223
29 32 c68 73 238 262 248 275 16 21 105 121 175 196 36 39 110 119 165 179
l100 108 44 -6 c36 -5 55 -16 105 -64z m-318 20 c-1 -22 -303 -362 -320 -362
-40 0 -41 -1 171 233 134 148 151 162 149 129z m6914 -252 c0 -131 -4 -230 -9
-230 -12 0 -22 162 -17 275 3 50 5 111 5 138 1 26 6 47 11 47 6 0 10 -83 10
-230z m70 0 c0 -198 -2 -230 -15 -230 -13 0 -15 32 -15 230 0 198 2 230 15
230 13 0 15 -32 15 -230z m-6930 211 c0 -9 -46 -61 -228 -258 -90 -98 -125
-126 -103 -84 6 10 62 75 124 145 63 69 130 144 148 166 32 37 59 51 59 31z
m1608 -94 c16 -18 11 -589 -4 -594 -18 -6 -24 83 -24 355 0 240 3 269 28 239z
m72 -303 c0 -271 -2 -305 -15 -294 -13 11 -15 57 -15 306 0 255 2 294 15 294
13 0 15 -41 15 -306z m-1098 127 c24 -22 85 -77 136 -122 51 -45 91 -86 90
-90 -2 -4 -63 -73 -137 -153 l-134 -145 -143 130 c-134 123 -142 131 -126 148
9 9 71 74 136 144 65 70 123 127 127 127 5 0 28 -18 51 -39z m212 -44 c78 -70
86 -81 63 -90 -17 -6 -170 140 -162 154 10 15 16 11 99 -64z m-36 -60 c59 -58
72 -77 54 -77 -12 0 -162 140 -162 151 0 18 45 -13 108 -74z m-1148 12 c0 -12
5 -16 14 -13 43 17 11 -30 -114 -165 -77 -84 -140 -155 -140 -159 0 -5 26 -30
57 -58 217 -186 893 -804 893 -815 0 -5 5 -9 11 -9 6 0 56 -40 110 -90 95 -87
121 -102 134 -80 7 12 25 13 25 2 0 -5 -9 -18 -20 -30 -14 -15 -16 -22 -8 -23
10 0 10 -2 0 -6 -12 -5 -167 130 -597 522 -431 392 -614 555 -624 555 -6 0
-27 -18 -47 -40 -42 -46 -58 -51 -52 -15 5 25 -7 36 -14 13 -3 -9 -10 -8 -22
5 -20 20 -8 36 242 304 120 129 152 150 152 102z m7252 -131 c4 -10 10 -10 31
-1 16 8 27 9 28 3 0 -6 0 -35 0 -65 0 -30 0 -181 0 -335 l-1 -280 -40 0 -40 0
0 230 0 230 -381 0 c-357 0 -380 1 -377 18 3 16 30 17 373 19 204 1 373 2 378
3 4 0 7 43 7 95 0 83 10 120 22 83z m-5847 -173 c60 -55 110 -105 110 -111 0
-13 -256 -289 -267 -289 -4 0 -67 53 -138 119 l-131 118 48 52 c27 28 88 95
137 149 88 95 90 97 110 80 11 -10 70 -63 131 -118z m614 -200 c-2 -90 -6
-135 -13 -135 -6 0 -4 -5 4 -10 17 -11 10 -13 -14 -4 -14 5 -16 28 -16 145 0
133 1 139 20 139 19 0 20 -6 19 -135z m45 119 c11 -27 7 -172 -5 -180 -6 -3
-9 -15 -6 -25 3 -11 1 -19 -4 -19 -5 0 -9 11 -9 25 0 14 5 25 12 25 6 0 4 7
-5 18 -23 25 -25 172 -3 172 8 0 17 -7 20 -16z m-2508 -84 c-121 -144 -176
-191 -176 -150 0 22 185 208 193 194 6 -10 0 -25 -17 -44z m74 -10 c0 -12
-170 -190 -181 -190 -19 0 -6 19 77 108 81 87 104 105 104 82z m3590 -167 c0
-7 11 -13 25 -13 17 0 25 -5 25 -17 0 -15 -2 -16 -10 -3 -6 10 -10 11 -10 3 0
-7 -7 -13 -15 -13 -8 0 -15 -9 -15 -20 0 -13 -7 -20 -20 -20 -14 0 -20 7 -20
23 l0 22 -487 -3 c-297 -2 -496 1 -508 7 -11 5 -27 12 -35 15 -8 2 219 5 505
5 453 0 520 2 523 15 4 18 42 17 42 -1z m-3865 -55 c-15 -18 -57 -64 -94 -103
-37 -38 -103 -110 -146 -158 -86 -95 -111 -115 -127 -99 -11 11 2 27 177 217
60 66 128 139 149 163 35 37 42 41 54 28 13 -13 12 -19 -13 -48z m2775 -129
c0 -6 4 -8 8 -5 12 7 94 -79 85 -89 -5 -4 -3 -5 4 -1 21 12 87 -58 69 -73 -11
-10 -28 1 -89 61 -41 40 -93 90 -116 110 -23 21 -35 38 -28 41 14 5 67 -30 67
-44z m5119 -238 c1 -205 -8 -339 -20 -319 -10 15 -12 470 -2 519 l7 34 7 -29
c4 -16 8 -108 8 -205z m61 -51 c0 -249 -2 -280 -16 -280 -14 0 -15 29 -12 268
3 236 7 292 24 292 2 0 4 -126 4 -280z m-5134 185 c17 -16 43 -39 57 -50 30
-22 40 -42 27 -50 -12 -7 -150 123 -150 142 0 18 13 10 66 -42z m19 -90 c39
-31 123 -108 188 -169 l119 -111 -34 -6 c-33 -6 -32 -6 8 -8 51 -1 74 -23 55
-53 -14 -23 -6 -37 11 -20 9 9 15 9 27 -1 12 -9 13 -9 7 1 -17 28 11 8 92 -65
46 -43 98 -89 115 -103 76 -63 121 -109 114 -117 -10 -9 -587 -18 -587 -8 0 3
9 15 20 27 11 12 17 24 14 27 -3 3 -16 -9 -29 -26 -24 -30 -26 -31 -118 -32
l-94 -2 -7 38 c-8 49 -8 237 0 286 l7 37 81 2 81 2 -75 3 c-94 4 -107 8 -90
28 8 9 8 15 2 15 -14 0 -16 296 -2 305 8 5 7 12 -2 23 -15 20 -12 18 97 -73z
m-235 48 c-1 -21 -19 -48 -69 -100 -76 -81 -82 -84 -79 -48 1 14 9 25 17 25 8
0 11 3 8 7 -10 9 24 44 36 36 6 -3 7 -1 3 5 -6 9 67 102 80 102 2 0 4 -12 4
-27z m477 -120 c49 -43 96 -85 105 -93 11 -10 14 -21 9 -29 -8 -13 -221 171
-221 191 0 19 25 3 107 -69z m-367 -88 c0 -77 -4 -125 -10 -125 -6 0 -10 48
-10 125 0 77 4 125 10 125 6 0 10 -48 10 -125z m255 95 c77 -61 185 -165 185
-178 0 -7 -5 -10 -10 -7 -6 4 -7 11 -4 17 4 6 2 8 -4 4 -10 -6 -33 13 -171
141 -60 57 -58 72 4 23z m-322 -80 c3 -54 0 -100 -8 -125 -12 -37 -13 -30 -14
95 -1 149 15 171 22 30z m4099 -222 l3 -323 143 3 c138 4 142 3 142 -17 0 -12
-3 -20 -7 -20 -5 1 -28 0 -53 -1 l-45 -2 49 -9 c27 -4 53 -14 57 -21 7 -10
-19 -14 -129 -16 -84 -2 -138 1 -140 7 -2 6 -24 8 -53 5 -41 -5 -49 -3 -49 11
0 13 9 16 48 15 26 -1 85 -1 132 0 l85 2 -55 9 c-30 5 -90 9 -132 10 -70 2
-76 4 -58 16 31 22 31 412 0 420 -11 3 -20 9 -20 13 0 5 9 12 20 15 18 6 20
15 20 106 0 92 1 99 20 99 19 0 20 -8 22 -322z m-7134 294 c3 -10 -183 -221
-209 -238 -6 -3 -15 -2 -21 4 -7 7 20 43 83 112 52 56 101 110 109 120 16 20
31 21 38 2z m4254 -82 c2 -56 -1 -100 -6 -100 -5 0 -6 -3 -3 -6 4 -4 14 -1 24
7 9 8 14 9 10 2 -4 -6 -3 -14 2 -17 5 -4 12 2 14 11 4 14 5 13 6 -4 1 -18 -4
-23 -24 -23 l-25 0 0 -144 c0 -139 -1 -144 -20 -139 -19 5 -20 14 -20 155 0
97 4 147 10 143 6 -3 10 -1 10 4 0 6 -4 11 -10 11 -6 0 -10 40 -10 100 0 92 2
100 19 100 18 0 20 -9 23 -100z m-4202 44 c0 -15 -219 -248 -226 -241 -9 9 13
36 115 147 84 90 111 113 111 94z m2764 -30 c7 -18 2 -26 -63 -99 -125 -140
-143 -156 -157 -144 -18 14 -14 20 101 144 50 54 92 101 93 106 6 14 19 10 26
-7z m2441 -104 c-16 -4 -97 -8 -180 -8 -90 1 -136 4 -115 8 47 10 334 10 295
0z m-1598 -13 c-1 -5 6 -11 16 -12 27 -5 212 -194 201 -205 -7 -7 -41 19 -99
75 -49 47 -93 85 -98 85 -5 0 -4 6 2 14 9 11 9 16 0 22 -8 4 -9 3 -5 -4 13
-22 -9 -12 -26 12 -13 18 -13 23 -3 23 8 0 13 -5 12 -10z m1240 7 c-4 -4 -36
-7 -72 -6 -89 1 -83 -16 8 -21 39 -1 5 -4 -76 -5 -97 -1 -146 1 -142 8 3 6 16
11 28 11 17 1 15 3 -8 9 -18 5 29 8 119 9 82 0 146 -2 143 -5z m1813 -4 c-10
-6 -11 -10 -2 -10 6 0 12 -4 12 -10 0 -6 -86 -11 -222 -12 l-223 -3 0 -195 0
-195 168 -3 c157 -2 167 -4 167 -22 0 -18 -10 -18 -245 -17 -134 0 -247 -2
-251 -6 -4 -4 115 -7 264 -7 266 0 302 -3 302 -22 0 -5 -4 -7 -9 -3 -5 3 -13
1 -16 -5 -11 -17 -765 -13 -765 5 0 19 23 25 98 25 45 0 62 3 52 9 -8 6 -37 8
-66 5 -31 -3 -55 -1 -59 6 -3 6 -11 8 -16 5 -5 -4 -9 1 -9 9 0 13 25 15 173
15 l172 0 3 192 c1 108 -2 197 -7 202 -5 5 -75 8 -155 8 -141 -2 -146 -1 -146
19 0 20 4 20 398 20 260 0 392 -4 382 -10z m-3043 -75 c26 -25 79 -74 117
-109 77 -70 77 -99 -1 -37 -76 62 -138 123 -135 133 1 5 -2 7 -7 4 -12 -8 -28
14 -28 37 0 23 -2 24 54 -28z m2245 11 c4 -6 9 -47 10 -91 l2 -80 5 90 6 90
138 3 137 3 0 -181 0 -180 -135 0 c-153 0 -141 -7 -148 95 -3 43 -4 40 -5 -17
-2 -59 -4 -68 -21 -68 -10 0 -33 -3 -50 -6 l-31 -6 -1 58 c-2 104 -16 129 -18
32 l-1 -88 -50 0 -50 0 0 79 c0 44 -4 83 -10 86 -6 4 -10 -25 -10 -79 l0 -86
-50 0 -50 0 0 117 c0 64 -3 113 -7 109 -7 -7 -9 -34 -12 -158 l-1 -68 -50 0
-50 0 0 180 0 180 48 0 49 0 10 -57 10 -58 2 58 1 57 50 0 50 0 0 -40 c0 -22
5 -40 10 -40 6 0 10 18 10 40 l0 40 50 0 50 0 1 -57 c0 -32 5 -67 10 -78 l9
-20 -1 20 c-5 87 2 134 19 137 25 5 66 -3 74 -16z m-1054 -98 c3 -117 -3 -131
-70 -180 l-28 -19 0 156 0 156 48 -3 47 -3 3 -107z m116 96 c18 -48 6 -88 -41
-136 -26 -26 -51 -48 -55 -48 -9 0 -11 161 -2 184 4 11 19 16 49 16 30 0 45
-5 49 -16z m82 -16 c-63 -65 -66 -66 -66 -14 l0 46 49 0 48 0 -31 -32z m154
-148 l0 -181 -50 2 -50 3 0 178 0 178 50 0 50 0 0 -180z m120 0 l0 -180 -49 0
c-62 0 -61 -4 -61 196 l0 164 55 0 55 0 0 -180z m120 13 c0 -93 -4 -174 -9
-181 -5 -9 -24 -12 -52 -10 l-44 3 -3 178 -2 177 55 0 55 0 0 -167z m-5726 74
c-27 -28 -51 -54 -54 -57 -3 -3 -50 -54 -105 -115 -120 -132 -156 -166 -167
-159 -20 13 2 42 164 217 150 163 174 184 191 175 18 -9 16 -14 -29 -61z
m5366 -97 l0 -170 -50 0 -50 0 0 120 0 121 46 49 c26 28 48 50 50 50 2 0 4
-76 4 -170z m-1992 -15 c-2 -124 0 -176 9 -184 8 -7 14 -7 18 -1 3 6 28 9 55
8 27 -1 46 -6 44 -10 -3 -4 2 -8 10 -8 9 0 16 5 16 11 0 5 5 7 10 4 27 -16 2
-24 -90 -27 l-100 -3 0 191 c0 165 2 191 15 191 14 0 15 -23 13 -172z m-47 61
c5 -296 6 -283 -20 -267 -12 8 -28 342 -16 360 2 4 11 8 20 8 12 0 15 -18 16
-101z m-3306 1 c-33 -34 -91 -95 -130 -135 l-70 -73 40 -35 c22 -20 91 -82
154 -137 154 -137 331 -298 331 -302 0 -2 -6 -2 -13 -1 -18 2 -45 24 -287 241
-117 105 -219 194 -227 199 -11 6 -27 -4 -58 -34 -39 -38 -71 -44 -42 -7 19
24 125 143 202 225 138 148 135 146 148 133 8 -8 -3 -26 -48 -74z m8545 13 c0
-11 5 -22 10 -25 6 -3 10 3 10 14 0 12 7 21 16 21 13 0 15 -22 13 -175 l-2
-175 -193 0 c-187 0 -194 1 -194 20 0 18 7 20 72 20 89 0 86 8 -5 11 -59 2
-67 4 -67 22 0 19 5 20 143 14 79 -3 148 -2 153 1 6 4 11 50 11 102 0 169 1
180 18 174 8 -4 15 -14 15 -24z m-3314 -112 l-1 -113 -53 -3 -53 -3 2 63 c2
60 4 65 52 115 28 29 51 53 52 53 1 0 2 -51 1 -112z m-994 3 c47 -45 64 -85
22 -52 -43 34 -94 80 -94 86 0 17 36 0 72 -34z m-64 -36 c56 -58 38 -58 -25 0
-27 25 -41 44 -33 44 8 1 34 -20 58 -44z m939 -82 c-3 -2 -29 -3 -58 -1 l-54
3 55 58 55 57 3 -56 c2 -31 1 -58 -1 -61z m-335 -23 l101 0 -23 -20 c-31 -27
-189 -30 -215 -4 -18 19 -2 38 23 29 8 -3 59 -5 114 -5z m381 0 c92 -1 167 -5
167 -10 0 -25 -394 -31 -403 -6 -5 13 43 27 64 19 3 -1 81 -3 172 -3z m635
-10 c-5 -24 -418 -23 -418 0 0 12 49 15 248 15 148 0 172 -2 170 -15z m307 3
c28 -16 -26 -24 -130 -19 -44 3 -92 5 -107 5 -16 1 -28 5 -28 11 0 17 235 21
265 3z m-2445 -8 c0 -12 -13 -15 -60 -15 -55 0 -70 6 -53 23 14 15 113 8 113
-8z m470 6 c0 -11 -159 -17 -312 -13 -191 6 -117 22 102 22 123 0 210 -4 210
-9z m3150 -6 c0 -10 -11 -15 -32 -16 -31 -1 -32 -1 -8 -9 18 -6 5 -8 -45 -9
-49 0 -65 2 -55 9 10 7 -9 10 -63 10 -56 0 -83 4 -93 15 -14 13 2 15 140 15
132 0 156 -2 156 -15z m890 6 c0 -15 -59 -21 -209 -21 -161 0 -253 8 -245 21
7 12 454 12 454 0z m-8517 -74 l37 -33 -186 -197 c-175 -185 -204 -212 -204
-187 0 6 -6 10 -13 10 -7 0 -22 6 -32 14 -18 13 -13 20 80 122 111 122 279
304 280 304 1 0 18 -15 38 -33z m3997 18 c8 -9 -7 -14 -60 -19 -68 -7 -90 -4
-90 14 0 19 135 24 150 5z m1224 -1 c37 -14 10 -24 -66 -24 -57 1 -89 5 -102
15 -18 14 -12 15 66 15 48 0 93 -3 102 -6z m419 -4 c23 0 36 -4 32 -10 -7 -11
-363 -14 -392 -3 -34 13 21 18 175 16 81 -1 164 -3 185 -3z m420 0 c56 0 86
-4 82 -10 -8 -13 -415 -14 -415 -1 0 18 26 21 135 16 61 -3 150 -5 198 -5z
m388 -6 c10 -12 -10 -14 -125 -14 -77 0 -136 4 -136 9 0 23 242 27 261 5z
m2069 1 c16 -19 -4 -20 -245 -15 -198 4 -226 8 -175 23 39 11 410 4 420 -8z
m-4060 -5 c-38 -12 -400 -12 -400 0 0 6 77 10 213 9 122 -1 201 -4 187 -9z
m215 2 c-2 -3 -33 -7 -67 -9 -46 -3 -59 -1 -48 7 15 10 125 12 115 2z m2955
-3 c0 -12 -279 -9 -287 4 -2 4 61 7 141 7 98 0 146 -4 146 -11z m-2662 -141
c-2 -8 5 -12 17 -10 11 2 16 0 12 -4 -4 -4 2 -13 14 -20 13 -6 24 -19 25 -28
2 -13 -1 -14 -18 -5 -30 16 -69 60 -62 70 8 13 14 11 12 -3z m50 -98 c45 -42
32 -84 -56 -172 -43 -43 -76 -81 -73 -85 3 -3 0 -3 -8 2 -12 7 -11 10 2 20 9
7 15 14 12 17 -2 2 22 35 55 72 51 57 60 73 58 101 -1 19 -4 32 -7 30 -7 -8
-31 17 -25 26 8 14 18 11 42 -11z m52 -16 c0 -8 5 -14 10 -14 6 0 10 -13 10
-30 0 -20 -5 -30 -15 -30 -11 0 -15 11 -15 38 0 21 -6 44 -12 51 -11 10 -10
11 5 6 9 -4 17 -13 17 -21z m4 -109 c-4 -8 -11 -15 -17 -15 -6 0 -7 -3 -4 -7
10 -10 -44 -64 -56 -56 -6 3 -7 2 -4 -4 10 -16 -66 -84 -82 -74 -14 9 -1 26
107 137 34 35 66 46 56 19z m-1319 -321 c55 -50 156 -142 225 -205 69 -62 125
-116 126 -119 0 -3 -1 -2 -3 3 -9 15 -22 6 -16 -10 6 -16 -78 58 -282 247 -38
36 -137 126 -218 199 -89 81 -146 139 -143 147 3 7 1 16 -4 19 -6 4 -10 1 -10
-6 0 -7 -3 -10 -6 -6 -3 3 -3 11 1 16 6 11 37 -16 330 -285z m-4152 251 c33
-30 30 -40 -38 -105 -93 -89 -98 -133 -25 -205 57 -56 59 -62 25 -93 l-25 -24
-47 40 c-82 68 -86 75 -85 143 1 101 9 118 85 197 81 82 73 79 110 47z m5237
-91 c0 -12 -114 -129 -123 -126 -5 1 -6 -1 -3 -6 7 -11 -177 -202 -194 -202
-9 0 -11 3 -5 8 6 4 23 23 39 42 16 19 83 92 149 163 108 114 137 140 137 121z
m53 -30 c7 -7 -3 -20 -58 -78 -22 -23 -87 -94 -144 -159 -92 -105 -121 -131
-121 -111 0 9 62 85 130 159 30 34 82 91 115 128 60 67 67 72 78 61z m-3727
-246 c45 -42 79 -80 76 -83 -3 -3 1 -5 8 -5 7 0 19 -8 27 -17 9 -11 11 -12 7
-3 -4 8 18 -10 48 -40 31 -30 54 -58 51 -63 -5 -8 -90 66 -233 202 -41 39 -76
71 -78 71 -15 0 -151 129 -151 143 -1 19 72 -43 245 -205z m-116 -57 c-26 -31
-77 -87 -112 -125 l-64 -70 -37 28 -37 28 21 27 c11 14 63 72 115 129 l96 102
33 -32 34 -31 -49 -56z m-1380 5 c40 -32 176 -155 259 -233 38 -35 50 -53 39
-53 -29 0 -348 293 -348 320 0 9 3 11 8 5 4 -6 23 -23 42 -39z m1444 -101
c-38 -42 -89 -99 -114 -127 l-45 -50 -32 32 c-40 39 -44 29 87 173 l105 114
34 -33 34 -33 -69 -76z m-1359 -61 c111 -99 163 -151 162 -164 -1 -18 -3 -18
-28 3 -92 76 -329 290 -329 298 0 28 48 -6 195 -137z m925 113 c0 -16 59 -72
260 -249 80 -70 172 -152 205 -184 33 -31 68 -62 77 -68 50 -35 426 -390 422
-398 -6 -9 -139 104 -158 134 -6 10 -16 18 -21 18 -12 0 -100 89 -100 101 0 4
-3 11 -7 15 -5 4 -8 2 -8 -5 0 -11 -216 175 -269 233 -14 14 -30 26 -36 26
-12 0 -405 -423 -405 -436 0 -4 9 -17 20 -29 l20 -21 -33 -31 -32 -32 -145
131 c-80 72 -223 200 -318 285 -95 85 -180 166 -188 179 -22 32 -9 50 22 29
28 -18 31 -14 8 10 -12 12 -14 19 -6 27 13 13 10 15 144 -106 88 -79 88 -79
109 -60 12 10 109 115 216 232 179 195 223 235 223 199z m490 -157 c-142 -153
-129 -144 -169 -111 l-35 29 35 39 c19 22 70 78 114 125 l80 85 37 -31 36 -30
-98 -106z m3330 164 c0 -9 -34 -50 -42 -52 -5 -1 -9 -5 -9 -9 -2 -9 -47 -53
-55 -53 -8 0 9 24 51 73 37 43 55 56 55 41z m45 -44 c4 -6 -1 -7 -11 -3 -11 4
-15 3 -11 -4 11 -17 -3 -42 -19 -36 -10 4 -12 0 -7 -13 4 -11 3 -15 -5 -10 -6
3 -14 0 -19 -7 -9 -16 -53 -33 -53 -21 0 4 19 28 43 54 41 47 69 60 82 40z
m-3226 -59 l34 -28 -119 -125 -119 -125 -30 31 -31 31 24 30 c45 55 195 215
201 215 3 0 21 -13 40 -29z m110 -101 c2 -11 -214 -235 -229 -238 -8 -1 -28
10 -42 25 l-27 28 115 123 116 122 33 -27 c19 -16 34 -30 34 -33z m95 -20 c88
-80 133 -125 115 -112 -9 7 -19 10 -22 7 -4 -3 -5 -2 -2 2 5 6 -33 38 -46 38
-3 0 -36 27 -73 61 -44 39 -62 61 -51 61 10 0 45 -26 79 -57z m-40 -30 l28
-29 -112 -121 c-62 -66 -116 -120 -120 -120 -3 0 -19 13 -35 30 l-28 29 43 48
c90 100 181 193 188 193 4 0 20 -14 36 -30z m76 -137 c-18 -21 -70 -76 -115
-123 l-82 -86 -32 32 -31 33 86 93 c47 51 99 105 115 121 l30 27 31 -29 32
-29 -34 -39z m3188 55 c-5 -15 -228 -24 -228 -10 0 19 17 22 123 22 82 0 108
-3 105 -12z m447 0 c1 -2 5 -20 9 -40 l7 -37 -103 1 -103 0 -8 -63 c-4 -35 -9
-126 -10 -201 -5 -208 -17 -178 -17 41 0 126 3 190 10 186 6 -3 10 1 10 10 0
9 -4 13 -10 10 -5 -3 -10 -1 -10 4 0 7 -33 11 -90 11 l-90 0 0 47 0 46 201 -6
c111 -3 203 -7 204 -9z m420 -8 c10 -16 -42 -23 -133 -16 -48 3 -121 6 -162 6
-51 1 -69 4 -55 10 28 12 342 12 350 0z m67 -2 c9 9 67 12 215 12 196 0 203
-1 203 -20 0 -11 -6 -20 -12 -21 -10 0 -10 -2 0 -6 6 -2 12 -13 12 -23 0 -16
-12 -19 -117 -22 -65 -1 -120 0 -123 4 -3 4 -52 8 -108 9 -76 1 -102 5 -102
15 0 9 22 12 90 11 50 -1 90 1 90 6 0 7 -14 8 -122 9 -53 0 -58 2 -58 22 0 17
2 18 10 6 7 -12 12 -12 22 -2z m736 6 c153 -11 103 -24 -93 -24 -158 0 -185 2
-185 15 0 17 111 20 278 9z m568 -18 c23 -24 18 -26 -63 -28 -63 -1 -68 -2
-23 -5 136 -8 137 -33 2 -33 -54 0 -102 -3 -106 -7 -11 -11 -35 -12 -42 -2 -3
5 -50 9 -105 9 -81 0 -99 3 -99 15 0 8 3 14 8 14 4 -1 18 -1 32 0 22 1 23 3 7
12 -10 6 -25 8 -33 5 -9 -4 -14 1 -14 14 0 19 8 20 211 20 169 0 213 -3 225
-14z m393 8 c71 -15 8 -24 -160 -24 -163 0 -192 4 -172 23 8 9 290 9 332 1z
m531 -24 c0 -17 -7 -20 -42 -21 l-43 -2 39 -6 c22 -3 41 -11 43 -18 5 -14
-147 -20 -339 -15 -103 3 -118 6 -117 20 0 11 2 12 6 5 2 -7 9 -13 14 -13 6 0
7 5 4 10 -4 6 10 10 36 10 23 0 40 2 38 4 -5 5 -53 14 -81 15 -10 1 -18 8 -18
16 0 13 32 15 230 15 223 0 230 -1 230 -20z m414 5 c5 -13 -16 -15 -147 -15
-161 0 -230 7 -221 21 10 17 361 11 368 -6z m309 5 c170 0 177 -1 177 -20 0
-17 -7 -20 -52 -22 l-53 -1 50 -6 c28 -3 51 -12 53 -18 1 -10 -23 -13 -98 -13
-84 0 -101 -3 -110 -17 -10 -17 -10 -17 -20 0 -9 14 -27 17 -115 17 -87 0
-105 3 -105 15 0 8 8 15 18 15 14 0 14 2 3 9 -8 5 -16 19 -18 30 -3 19 1 20
45 16 26 -2 127 -4 225 -5z m592 -15 c0 -6 -64 -11 -165 -13 -170 -3 -215 1
-205 19 9 13 370 8 370 -6z m719 5 l322 0 149 -151 c83 -83 155 -157 162 -164
9 -9 9 -15 0 -24 -9 -9 -9 -16 1 -31 7 -11 12 -53 12 -95 l0 -75 -40 0 -40 0
0 92 0 92 -132 132 -133 133 -367 6 c-308 6 -368 5 -369 -6 0 -8 0 -101 0
-206 -1 -108 -5 -195 -10 -199 -5 -3 -7 -10 -4 -15 4 -5 2 -9 -4 -9 -7 0 -12
75 -13 218 l-3 217 -102 3 c-78 2 -102 6 -107 17 -4 11 2 15 19 15 14 0 25 5
25 10 0 6 -11 10 -25 10 -19 0 -25 5 -25 22 0 21 0 21 182 15 99 -4 326 -7
502 -7z m-8317 -20 c3 -11 14 -20 25 -20 11 0 18 -5 16 -11 -6 -18 -212 -237
-223 -238 -5 0 -22 12 -37 27 l-28 28 108 116 c109 119 130 133 139 98z m3128
-10 c4 -7 -44 -10 -137 -9 -87 1 -133 4 -118 9 37 12 248 12 255 0z m833 2
c73 -11 2 -22 -148 -22 -159 0 -204 5 -194 22 6 9 281 10 342 0z m914 -14
c-13 -16 -362 -13 -362 2 0 6 75 10 186 10 148 0 184 -3 176 -12z m-4748 -17
c9 -8 14 -16 11 -19 -3 -3 0 -11 6 -19 22 -26 2 -12 -30 21 -32 33 -22 46 13
17z m5666 9 c0 -6 -68 -10 -184 -10 -113 0 -187 4 -191 10 -4 7 60 10 184 10
121 0 191 -4 191 -10z m910 -10 c0 -6 -70 -10 -190 -10 -120 0 -190 4 -190 10
0 6 70 10 190 10 120 0 190 -4 190 -10z m-3570 -20 c0 -11 5 -20 10 -20 6 0
10 8 10 18 0 26 129 32 154 7 28 -28 20 -135 -10 -135 -8 0 -14 -4 -14 -10 0
-5 7 -10 15 -10 14 0 18 -13 18 -75 0 -57 2 -55 -84 -55 l-81 0 4 65 c1 36 1
65 -2 65 -3 0 -4 26 -2 57 2 47 0 54 -9 40 -6 -10 -9 -34 -7 -53 l4 -34 -47 6
c-30 4 -49 2 -53 -5 -5 -7 9 -11 43 -11 l51 0 0 -65 0 -65 -100 0 -100 0 0
-60 0 -60 -57 0 c-32 0 -88 3 -126 7 l-67 6 2 37 c2 21 6 36 11 33 4 -2 7 5 7
16 0 12 5 21 10 21 6 0 10 5 10 10 0 6 -11 10 -25 10 -24 0 -25 3 -25 55 l0
55 38 0 c27 0 33 3 22 10 -8 5 -26 10 -39 10 l-24 0 23 25 c23 24 23 25 5 45
-18 20 -18 21 0 14 14 -6 16 -4 10 6 -6 9 -4 11 4 6 8 -5 14 0 18 13 3 11 9
18 14 15 5 -3 7 -10 4 -15 -13 -20 21 -7 44 16 23 25 26 25 182 25 152 0 159
-1 159 -20z m908 13 l172 -6 0 -204 c0 -187 -1 -203 -17 -203 -17 -1 -17 -1 0
-11 18 -10 18 -28 13 -337 -3 -180 -6 -375 -7 -435 -1 -59 -6 -110 -11 -113
-6 -4 -5 -10 3 -16 9 -6 -8 -7 -46 -3 -130 13 -165 14 -159 4 9 -15 -528 0
-543 14 -3 4 -17 7 -30 7 l-23 0 -1 198 c0 267 -4 360 -12 368 -4 4 -7 -4 -7
-19 0 -14 -4 -29 -10 -32 -6 -4 -10 45 -10 140 0 142 1 146 20 140 20 -6 20
-2 20 249 l0 255 108 4 c231 6 374 7 540 0z m3557 -3 c-4 -6 -80 -10 -196 -10
-119 0 -189 4 -189 10 0 6 72 10 196 10 127 0 193 -3 189 -10z m-7504 -28 l30
-27 -102 -110 c-124 -134 -119 -131 -158 -97 l-31 27 107 117 c60 64 111 117
115 117 4 1 22 -11 39 -27z m4158 -361 c-8 -2 -7 -6 2 -12 11 -7 10 -9 -3 -9
-17 0 -18 15 -18 185 0 141 3 185 13 186 9 0 9 2 0 6 -10 3 -10 7 0 18 9 10
13 -27 15 -179 2 -136 -1 -192 -9 -195z m849 377 c13 -1 12 -1130 0 -1204 -3
-18 -9 -49 -13 -71 l-6 -39 -92 -5 c-217 -10 -452 -5 -677 15 l-25 3 1 584 c0
321 2 617 4 657 l3 74 396 -6 c218 -4 402 -7 409 -8z m61 -190 c0 -108 -4
-184 -8 -173 -8 19 -9 18 -13 -5 -3 -14 -5 58 -6 160 0 106 3 174 8 160 7 -22
8 -21 9 13 1 20 3 37 6 37 3 0 5 -87 4 -192z m774 185 l87 -6 0 -243 c0 -156
4 -244 10 -244 6 0 10 13 10 29 0 24 3 28 20 24 19 -5 20 -14 20 -189 l0 -184
-24 0 c-15 0 -26 7 -29 18 -3 9 -5 -106 -6 -256 -1 -179 -4 -271 -11 -267 -5
3 -10 2 -10 -3 0 -8 -798 -8 -805 0 -8 9 -13 748 -8 1016 l6 313 326 -1 c179
-1 365 -4 414 -7z m707 -4 c220 -2 260 -6 260 -26 0 -8 5 -11 10 -8 7 5 10
-62 10 -205 -1 -139 2 -216 9 -223 8 -8 11 -8 11 1 0 7 9 12 20 12 20 0 20 -5
18 -187 -3 -159 -5 -188 -18 -188 -11 0 -16 16 -20 60 -11 132 -21 11 -21
-258 0 -219 -2 -282 -13 -292 -14 -15 -286 -23 -561 -17 -198 4 -221 8 -233
41 -14 35 -22 610 -15 988 l6 302 106 3 c58 2 138 2 176 1 39 -1 153 -2 255
-4z m979 -12 c136 -2 175 -5 179 -16 4 -11 6 -11 13 0 5 8 9 -80 9 -208 l0
-223 30 0 c26 0 30 -4 30 -27 0 -19 3 -24 11 -16 7 7 10 93 9 250 l0 240 22
-3 c13 -1 137 -3 276 -3 l252 -1 0 -29 c0 -37 15 -48 25 -18 6 19 8 19 12 5 7
-29 23 -20 23 12 0 29 2 30 43 30 42 0 47 -3 170 -127 l127 -128 0 -88 0 -89
-27 2 c-16 1 -35 2 -43 1 -26 -2 11 -21 42 -21 24 0 27 -4 30 -42 2 -24 7 -43
13 -43 5 0 8 17 7 39 -3 26 0 36 7 32 14 -9 15 -332 1 -341 -6 -4 -10 7 -10
24 0 17 -4 31 -10 31 -6 0 -10 -35 -10 -85 l0 -85 -30 0 c-16 0 -30 -4 -30
-10 0 -5 14 -10 30 -10 l30 0 0 -66 c0 -56 -3 -69 -22 -86 -13 -11 -16 -17 -8
-13 16 7 -11 -18 -53 -49 -14 -11 -23 -24 -20 -30 4 -5 -1 -7 -11 -3 -10 4
-15 3 -11 -3 6 -10 -32 -49 -47 -50 -5 0 -8 23 -8 50 0 67 -15 64 -17 -2 -1
-29 -4 -62 -7 -73 -2 -11 -5 -23 -5 -27 -1 -5 -6 -8 -12 -8 -5 0 -7 5 -4 10
10 16 -1 11 -16 -7 -12 -15 -12 -16 1 -8 12 6 13 5 3 -5 -7 -7 -29 -15 -50
-16 -26 -2 -32 -1 -19 5 19 7 19 8 -1 13 -17 4 -23 1 -26 -16 -2 -11 -5 4 -7
34 -2 61 -16 161 -20 145 -1 -5 -3 -23 -4 -40 -1 -23 -6 -29 -19 -27 -15 3
-26 -61 -18 -110 2 -15 -525 -9 -537 5 -7 9 -12 108 -12 288 -1 152 -6 282
-11 290 -6 9 -9 1 -9 -28 0 -36 -3 -43 -20 -43 -16 0 -20 7 -21 38 l-2 37 -8
-45 c-4 -25 -8 -154 -8 -287 -1 -187 -4 -243 -13 -243 -9 0 -8 -4 2 -11 16
-11 -747 -5 -786 6 -20 6 -21 13 -27 357 -3 193 -3 489 0 659 l6 308 126 3
c69 2 169 2 221 0 52 -1 173 -3 269 -5z m-6714 -18 c-4 -5 2 -12 12 -16 26 -9
53 -34 47 -44 -3 -5 1 -7 8 -4 7 3 39 -21 71 -54 64 -65 56 -78 -11 -17 -23
21 -51 45 -62 53 -11 8 -20 21 -20 29 0 9 -5 12 -12 8 -7 -4 -10 -3 -5 1 4 5
-7 15 -25 23 -18 8 -27 16 -20 19 6 3 9 10 6 15 -4 7 -2 8 5 4 6 -4 9 -12 6
-17z m5165 -184 c0 -107 -4 -195 -8 -195 -5 0 -9 24 -10 53 -1 28 -5 64 -8 80
-3 15 -2 27 3 27 5 0 8 52 5 115 -2 77 0 115 7 115 8 0 11 -64 11 -195z
m-5897 137 l27 -28 -98 -110 c-133 -148 -124 -141 -164 -105 l-33 30 40 43
c82 89 190 198 195 198 4 0 18 -13 33 -28z m6796 -134 c1 -60 -3 -108 -7 -108
-5 0 -9 60 -10 133 0 82 2 123 8 107 4 -14 8 -73 9 -132z m-4643 80 c-29 -41
-277 -308 -286 -308 -18 0 -28 -12 139 174 58 64 111 116 118 116 8 0 12 4 9
9 -3 5 1 12 10 15 8 3 12 11 8 17 -4 8 -3 9 5 5 8 -5 7 -13 -3 -28z m192 -10
l3 -42 -21 24 c-24 28 -25 34 -4 26 14 -5 15 -4 5 8 -9 11 -9 15 1 19 7 3 13
6 13 6 0 1 1 -18 3 -41z m-22 -44 c-3 -9 0 -11 11 -7 11 4 14 2 9 -5 -4 -7 -3
-12 2 -12 17 0 0 -49 -19 -55 -11 -4 -17 -10 -14 -15 6 -10 -34 -62 -44 -56
-4 3 -13 0 -21 -6 -12 -8 -12 -9 3 -4 9 3 17 1 17 -4 0 -6 -3 -10 -7 -10 -5 0
-17 -14 -28 -30 -11 -16 -26 -30 -34 -30 -10 0 -11 3 -2 14 7 8 8 17 3 20 -9
5 -7 86 2 126 7 31 18 50 27 44 5 -3 6 2 3 10 -7 17 31 40 49 30 8 -5 7 -2 -2
9 -12 15 -11 16 18 6 20 -7 30 -16 27 -25z m164 -24 c0 -47 -3 -60 -15 -60
-16 0 -22 71 -9 104 13 34 24 13 24 -44z m-341 -36 c-24 -26 -53 -58 -64 -69
-11 -12 -37 -40 -57 -63 -21 -23 -38 -40 -38 -38 0 3 -13 -7 -28 -22 -15 -15
-26 -30 -24 -35 2 -4 -2 -6 -9 -5 -7 2 -14 -3 -15 -9 -3 -23 -4 -24 -14 -18
-12 7 -1 22 96 131 131 147 178 194 187 185 6 -6 -8 -29 -34 -57z m-1062 -99
c37 -32 56 -55 46 -55 -9 0 -38 22 -64 49 -27 26 -49 46 -49 44 0 -2 -6 2 -14
9 -8 7 -12 15 -10 17 2 2 -1 11 -8 20 -6 9 -1 6 13 -6 13 -12 52 -47 86 -78z
m1873 5 c0 -56 2 -55 -97 -44 l-53 7 0 43 0 44 75 0 75 0 0 -50z m180 6 c0
-52 -7 -56 -96 -56 l-64 0 0 50 0 50 80 0 80 0 0 -44z m-650 -5 l0 -38 -45 0
c-42 0 -45 1 -40 25 6 33 14 40 26 22 8 -12 10 -10 6 8 -4 19 -1 22 24 22 27
0 29 -3 29 -39z m268 -113 l-3 -53 -127 -1 -128 -1 0 53 0 54 131 0 130 0 -3
-52z m29 -105 c-2 -32 -3 -8 -3 52 0 61 1 87 3 58 2 -29 2 -78 0 -110z m173
137 c0 -11 5 -20 10 -20 6 0 10 9 10 20 0 18 7 20 80 20 l80 0 0 -55 0 -55
-80 0 c-73 0 -80 2 -80 20 0 11 -4 20 -10 20 -5 0 -10 -9 -10 -20 0 -18 -7
-20 -75 -20 l-75 0 0 55 0 55 75 0 c68 0 75 -2 75 -20z m-540 -161 c0 -124 -2
-148 -16 -153 -15 -6 -19 140 -6 278 9 96 22 22 22 -125z m60 9 c0 -89 -3
-158 -7 -154 -9 9 -15 259 -7 294 10 49 14 14 14 -140z m1620 -38 l0 -190 -24
0 -24 0 -1 155 c-2 184 3 225 30 225 18 0 19 -10 19 -190z m-5089 99 c116 -99
159 -144 158 -161 0 -10 -2 -10 -6 0 -2 6 -10 12 -17 12 -13 0 -224 189 -238
214 -18 32 10 14 103 -65z m5983 65 c9 -22 7 -337 -2 -349 -37 -50 -51 66 -35
288 5 75 21 102 37 61z m-3737 -57 c-1 -6 3 -11 9 -12 6 0 46 -33 90 -74 43
-40 58 -57 33 -37 -25 20 -51 36 -58 36 -7 0 -9 5 -6 10 3 6 0 10 -7 10 -8 0
-29 16 -48 35 -19 19 -30 35 -25 35 5 0 0 6 -10 14 -11 8 -22 13 -26 11 -3 -2
-6 2 -6 10 0 11 7 9 28 -6 16 -11 28 -25 26 -32z m-2352 0 c11 -11 66 -60 123
-109 65 -58 102 -98 102 -110 0 -18 -2 -19 -17 -7 -30 23 -273 241 -273 244 0
11 48 -2 65 -18z m9876 14 c5 8 8 -58 6 -161 -1 -108 -6 -175 -12 -175 -6 0
-11 66 -12 175 -1 96 1 169 4 161 5 -11 7 -11 14 0z m-6967 -30 c-11 -9 -21
-19 -22 -23 -3 -13 -17 -9 -17 4 0 7 10 17 22 24 13 6 20 14 15 19 -4 5 -1 5
7 0 12 -7 11 -11 -5 -24z m930 -7 c11 -4 16 -19 16 -50 l0 -44 -114 0 c-73 0
-117 4 -122 11 -4 8 -9 7 -15 -2 -5 -9 -8 5 -7 36 0 28 3 39 5 25 8 -43 26
-50 20 -7 l-6 37 104 0 c57 0 110 -3 119 -6z m214 -32 c4 -39 22 -33 22 9 0
33 9 34 108 23 l52 -7 0 -48 0 -49 -80 0 c-64 0 -80 3 -80 15 0 8 -4 15 -10
15 -5 0 -10 -4 -10 -10 0 -6 -32 -10 -75 -10 l-75 0 0 50 0 51 73 -3 72 -3 3
-33z m-1114 -6 c-2 -11 -11 -27 -21 -35 -16 -15 -16 -15 -2 3 9 13 10 17 2 12
-22 -13 -36 4 -19 23 22 24 45 23 40 -3z m-70 5 c3 -5 -9 -22 -27 -38 -17 -16
-63 -64 -100 -106 -38 -42 -73 -75 -78 -72 -5 3 5 21 23 40 17 19 35 32 41 28
6 -4 7 -1 2 6 -4 8 9 29 38 56 24 24 42 47 38 51 -3 4 0 4 7 0 7 -4 12 -2 12
6 0 27 33 48 44 29z m21 -51 c-1 -12 -12 -31 -25 -43 -20 -18 -21 -18 -8 -2
11 13 15 30 11 43 -4 15 -1 22 9 22 9 0 14 -9 13 -20z m956 -34 c2 -3 3 -25 1
-50 l-4 -46 -54 0 c-30 0 -54 -4 -54 -10 0 -6 27 -10 60 -10 l60 0 0 -50 0
-50 -65 0 c-37 0 -65 -4 -65 -10 0 -6 29 -10 66 -10 64 0 66 -1 60 -22 -3 -13
-6 -35 -6 -50 0 -27 -2 -28 -57 -28 -41 0 -54 -3 -43 -10 8 -5 36 -10 62 -10
28 0 48 -5 50 -12 4 -10 10 -10 32 0 15 6 58 12 96 12 l70 0 0 -42 c0 -32 3
-39 10 -28 5 8 10 27 10 43 l0 27 80 0 80 0 0 -115 c0 -70 -4 -115 -10 -115
-5 0 -10 -11 -10 -24 0 -33 -12 -39 -82 -42 l-58 -3 0 74 c0 43 -4 75 -10 75
-6 0 -10 -32 -10 -75 l0 -75 -145 0 c-80 0 -145 3 -145 8 0 4 -32 8 -71 8 -46
1 -74 5 -79 14 -6 10 -9 9 -13 -1 -3 -8 -6 18 -6 57 -1 78 2 83 62 85 27 1 28
2 7 6 -72 11 -70 9 -70 68 0 60 -1 59 78 58 12 0 22 4 22 8 0 5 -15 9 -34 9
-19 0 -41 3 -50 6 -17 7 -22 54 -6 54 14 0 12 27 -2 33 -7 3 8 6 35 6 26 1 47
6 47 11 0 6 -18 10 -41 10 l-40 0 3 48 3 47 48 3 c57 4 63 22 8 22 -63 0 -71
7 -71 56 l0 44 123 0 c68 0 126 -2 128 -4z m209 -11 c0 -8 5 -15 10 -15 6 0 9
6 8 13 -2 9 20 13 80 15 l82 3 0 -51 0 -50 -80 0 c-73 0 -80 2 -80 19 0 11 -4
23 -10 26 -6 4 -10 -5 -10 -19 0 -26 -1 -26 -75 -26 l-75 0 0 50 0 50 75 0
c60 0 75 -3 75 -15z m-2228 -19 c7 4 8 2 4 -4 -4 -7 -1 -12 7 -12 7 0 26 -13
42 -30 16 -16 23 -30 17 -30 -7 0 -12 5 -12 12 0 6 -3 8 -7 4 -8 -8 -73 54
-72 68 0 6 3 5 6 -2 2 -6 10 -9 15 -6z m993 -16 c-1 -21 -55 -84 -63 -75 -8 8
-42 -27 -36 -36 3 -5 0 -9 -6 -9 -6 0 -8 -4 -5 -10 3 -5 0 -10 -7 -10 -7 0
-24 -16 -38 -34 -14 -19 -28 -32 -32 -29 -5 2 -13 -9 -20 -24 -12 -28 -86
-108 -100 -108 -4 0 -13 -6 -19 -12 -10 -10 -10 -13 0 -13 11 0 11 -3 1 -15
-7 -8 -15 -13 -19 -11 -3 2 -12 -2 -19 -10 -7 -8 -10 -14 -7 -14 16 0 -127
-151 -152 -161 -13 -5 -21 -14 -19 -21 1 -7 1 -10 -1 -5 -10 16 -21 6 -17 -15
4 -21 3 -21 -4 -3 -9 19 -9 19 -21 0 -7 -11 -11 -15 -9 -9 3 11 90 111 158
183 19 21 61 66 94 102 123 136 158 169 167 164 5 -4 6 2 2 11 -5 13 -3 16 10
11 11 -4 14 -2 11 7 -3 7 23 44 57 82 82 91 97 101 94 64z m-2345 -156 c150
-132 292 -269 285 -276 -2 -2 5 -4 16 -4 19 0 119 86 119 103 0 4 19 27 43 49
23 23 61 65 85 93 40 48 72 65 72 40 0 -6 -7 -8 -16 -5 -8 3 -13 2 -10 -3 7
-11 -36 -61 -52 -61 -7 0 -10 -4 -7 -10 3 -5 1 -10 -4 -10 -6 0 -11 -6 -11
-12 -1 -7 -41 -55 -90 -107 -50 -52 -90 -98 -90 -102 0 -4 20 -25 45 -46 26
-21 43 -43 40 -51 -3 -7 0 -10 6 -6 6 3 26 -10 45 -29 18 -20 29 -39 24 -42
-6 -4 -10 -1 -10 5 0 6 -4 9 -9 6 -13 -9 -34 21 -25 36 5 8 1 8 -11 -2 -11 -9
-16 -10 -11 -2 4 7 2 12 -7 12 -30 0 -25 -15 19 -53 29 -25 42 -43 36 -49 -11
-11 -129 79 -124 95 1 4 -1 6 -6 3 -4 -2 -35 20 -67 51 -33 30 -77 70 -98 89
-20 19 -34 34 -30 34 5 0 -5 8 -22 19 -36 22 -336 288 -348 308 -11 19 0 46
14 37 7 -4 9 -3 5 4 -3 6 1 15 11 20 17 10 30 1 183 -134z m690 81 c-54 -55
-109 -82 -60 -30 13 14 29 25 37 25 7 0 14 5 14 10 1 6 2 14 3 19 0 5 5 13 10
18 5 5 6 3 2 -4 -10 -18 2 -16 20 2 9 8 18 15 22 15 3 0 -18 -25 -48 -55z
m2890 -20 c0 -14 5 -25 10 -25 6 0 10 11 10 25 0 25 1 25 80 25 l80 0 0 -27
c0 -69 -6 -73 -85 -73 -49 0 -75 4 -79 13 -5 10 -7 10 -12 0 -4 -9 -30 -13
-80 -13 l-74 0 0 50 0 50 75 0 c73 0 75 -1 75 -25z m2027 -307 c-1 -51 -3 -12
-3 87 0 99 2 141 3 93 2 -48 2 -129 0 -180z m-920 65 c-2 -37 -3 -9 -3 62 0
72 1 102 3 68 2 -34 2 -93 0 -130z m1832 25 c-1 -128 -3 -154 -11 -123 -23 96
-17 285 9 285 1 0 2 -73 2 -162z m-4961 145 c-2 -5 2 -9 7 -11 19 -6 45 -35
45 -51 0 -10 -11 -4 -35 19 -19 18 -32 37 -29 42 6 10 15 11 12 1z m500 -76
c-40 -46 -76 -82 -80 -80 -5 2 -8 -1 -8 -6 0 -6 -20 -32 -44 -58 -24 -27 -55
-61 -69 -78 -14 -16 -28 -27 -32 -24 -7 8 15 59 26 59 12 0 84 74 81 83 -1 5
2 6 8 2 5 -3 10 -2 10 3 0 6 16 26 35 45 19 19 35 37 35 41 0 9 92 96 102 96
5 0 -24 -37 -64 -83z m7343 41 c0 -18 -1 -64 -2 -103 -2 -38 -3 -89 -3 -112 0
-25 -4 -39 -10 -36 -5 4 -7 0 -3 -10 6 -17 -15 -41 -27 -29 -4 4 -6 2 -4 -3 3
-11 -79 -95 -92 -95 -4 0 -15 -11 -23 -24 -25 -37 -68 -81 -78 -78 -5 1 -9 -3
-9 -9 0 -5 -4 -7 -10 -4 -5 3 -10 -1 -10 -10 0 -9 -4 -13 -10 -10 -5 3 -10 -1
-10 -9 0 -10 -9 -16 -21 -16 -20 0 -20 0 3 29 13 16 38 36 56 45 18 9 30 21
27 26 -3 6 -1 10 4 10 6 0 11 6 11 14 0 8 9 18 20 21 11 3 20 13 20 21 0 8 3
14 8 14 4 0 37 29 73 64 l66 63 -4 136 c-4 120 -3 137 11 137 11 0 16 -10 17
-32z m-6384 -110 c-2 -24 -4 -5 -4 42 0 47 2 66 4 43 2 -24 2 -62 0 -85z m563
96 c0 -15 4 -23 10 -19 6 4 9 14 8 23 -3 15 7 17 72 17 71 0 75 -1 78 -24 9
-60 -3 -71 -75 -71 -51 0 -69 4 -79 18 -13 16 -13 16 -14 0 0 -16 -10 -18 -73
-18 l-73 0 -3 50 -2 50 76 0 c74 0 75 0 75 -26z m5780 -54 c0 -146 -10 -171
-111 -271 -48 -48 -90 -84 -93 -81 -3 3 -6 -1 -6 -9 0 -8 -9 -15 -19 -16 -19
-2 -19 -1 1 22 12 14 25 22 30 19 4 -3 8 1 8 8 0 7 34 47 76 89 l76 77 1 108
c0 120 3 134 23 134 11 0 14 -18 14 -80z m-1940 -150 c1 -197 -11 -265 -23
-132 -13 133 -8 332 7 332 12 0 15 -34 16 -200z m910 159 c0 -16 -4 -28 -9
-24 -5 3 -12 -3 -14 -12 -3 -10 -5 1 -6 25 -1 31 3 42 14 42 10 0 15 -10 15
-31z m-20 -131 c0 -39 -3 -69 -6 -65 -8 8 -15 118 -8 129 11 18 14 5 14 -64z
m-3603 -120 c-2 -24 -4 -5 -4 42 0 47 2 66 4 43 2 -24 2 -62 0 -85z m-1668
-23 c-1 -57 -6 -102 -10 -99 -9 5 -11 159 -3 187 11 38 15 12 13 -88z m45 89
c11 -28 6 -118 -7 -136 -11 -14 -14 -4 -16 68 -2 78 8 107 23 68z m5246 -139
c0 -17 -5 -25 -17 -25 -15 0 -16 2 -3 10 10 6 11 10 3 10 -7 0 -13 7 -13 15 0
8 7 15 15 15 9 0 15 -9 15 -25z m-4880 -61 c0 -17 -22 -18 -38 -2 -8 8 -12 8
-12 1 0 -6 -22 -11 -50 -12 -39 0 -50 3 -50 15 0 12 13 15 75 13 55 -1 75 -5
75 -15z m412 4 c26 1 50 -3 53 -8 3 -6 12 -10 18 -10 7 0 6 4 -3 10 -20 13
-13 12 40 -5 44 -14 43 -14 -77 -13 -68 0 -123 2 -123 3 0 20 15 35 29 28 9
-4 37 -6 63 -5z m1772 -19 c4 6 13 11 19 11 7 0 6 -4 -3 -11 -12 -9 -11 -9 5
-3 42 15 87 17 97 3 7 -11 11 -11 15 -1 2 6 17 12 31 11 15 0 21 -3 14 -6 -6
-2 -10 -9 -6 -14 3 -5 -1 -10 -8 -11 -33 -7 -428 -2 -428 5 0 4 12 7 28 8 24
0 25 1 7 9 -19 8 -19 9 3 9 12 1 22 -4 22 -10 0 -8 5 -7 15 1 10 9 33 11 70 7
31 -3 57 -1 61 4 4 6 11 5 20 -2 12 -10 13 -8 9 7 -4 12 -1 11 8 -5 9 -15 17
-20 21 -12z m-1890 15 c31 -12 15 -21 -39 -23 -31 -1 -55 2 -55 8 0 5 -8 12
-17 14 -10 3 8 5 39 6 31 0 63 -2 72 -5z m676 -5 c0 -5 -81 -9 -180 -9 -118 0
-180 4 -180 10 0 7 61 10 180 9 99 -1 180 -5 180 -10z m766 1 c79 0 144 -4
144 -8 0 -5 -39 -8 -87 -7 -49 1 -134 2 -190 3 -69 1 -103 6 -103 13 0 8 15
10 46 5 26 -3 111 -6 190 -6z m-566 -10 c23 -2 22 -3 -6 -9 -17 -5 -58 -5 -90
-2 -54 5 -56 6 -24 12 19 3 49 5 65 3 17 -1 41 -3 55 -4z m290 0 c0 -13 -42
-20 -115 -20 -66 1 -69 2 -45 15 26 15 160 19 160 5z m1120 1 c0 -12 -28 -18
-85 -16 -86 3 -96 5 -90 15 8 12 175 13 175 1z m177 -13 c-16 -10 -120 -10
-113 0 2 4 31 7 64 7 34 0 55 -3 49 -7z m100 3 c15 5 55 7 92 3 36 -4 73 -6
81 -5 48 7 150 5 150 -3 0 -5 6 -4 13 2 17 14 67 3 67 -15 0 -12 -19 -14 -110
-11 -60 1 -110 5 -110 9 0 3 -19 3 -43 -1 -75 -11 -177 0 -176 19 0 9 3 11 5
4 4 -9 13 -9 31 -2z m726 2 c59 -3 107 -10 107 -15 0 -16 -334 -10 -356 7 -22
17 62 20 249 8z m463 -12 c101 5 134 1 134 -17 0 -13 -17 -15 -125 -12 -69 2
-125 0 -125 -4 0 -5 49 -8 109 -8 120 0 141 -4 141 -29 0 -14 -2 -14 -10 -1
-6 10 -10 11 -10 3 0 -10 -48 -13 -205 -13 -157 0 -205 3 -205 13 0 8 -4 7
-10 -3 -8 -12 -10 -11 -10 7 0 13 3 22 8 22 4 -1 22 -1 40 0 46 2 40 21 -8 21
-30 0 -40 4 -40 16 0 14 15 16 120 12 82 -3 120 -1 120 6 0 6 4 5 9 -3 6 -9
26 -12 67 -10z m825 5 c5 3 9 0 9 -6 0 -7 89 -10 299 -8 257 3 301 1 311 -12
9 -13 10 -13 3 0 -6 13 -5 13 11 1 15 -13 19 -13 27 0 7 11 9 11 9 -3 0 -18
-52 -24 -180 -19 -30 1 -42 -1 -35 -8 6 -6 71 -11 148 -12 131 -1 137 -2 137
-22 0 -20 -3 -20 -182 -14 -99 4 -318 7 -485 7 -298 0 -303 0 -303 20 0 20 4
21 220 18 121 -2 220 0 220 5 0 4 -90 8 -200 8 -110 1 -204 3 -210 4 -5 1 -17
3 -25 4 -8 0 -15 8 -15 17 0 15 110 14 191 -1 12 -3 19 -2 16 1 -3 4 0 12 6
19 7 7 14 9 15 4 2 -5 8 -7 13 -3z m779 10 c0 -3 -10 -16 -22 -28 -26 -28 -75
-36 -75 -13 0 18 17 20 18 3 0 -10 2 -10 6 0 2 6 13 12 24 12 11 0 22 7 25 15
6 13 24 22 24 11z m-1055 -27 c5 -5 -70 -9 -182 -9 -177 0 -215 5 -195 24 10
11 365 -4 377 -15z m-4875 -9 c-9 -6 -4 -10 16 -13 22 -3 19 -4 -13 -6 -24 0
-43 4 -43 9 0 6 -13 10 -30 10 -16 0 -30 3 -30 8 0 4 25 5 56 3 35 -2 52 -6
44 -11z m600 9 c0 -6 5 -7 11 -3 12 7 220 6 228 -1 2 -3 2 -7 0 -10 -9 -8
-199 -12 -199 -4 0 5 -10 5 -23 0 -38 -15 -155 -12 -161 4 -3 10 5 15 27 17
81 8 117 7 117 -3z m1123 -10 c15 0 15 -2 3 -15 -17 -17 -137 -20 -167 -4 -10
6 -19 7 -19 2 0 -5 -24 -9 -52 -10 -38 -1 -47 2 -33 8 18 8 17 9 -8 9 -16 1
-38 -4 -50 -10 -16 -9 -22 -9 -25 0 -2 6 -17 11 -32 11 -16 0 -31 4 -34 8 -4
7 268 7 417 1z m-1344 -15 c2 -2 -54 -4 -125 -4 -71 0 -123 4 -117 8 13 8 234
5 242 -4z m875 -4 c7 -7 -54 -10 -177 -10 -163 0 -186 2 -175 14 15 18 335 13
352 -4z m1367 9 c8 -5 10 -9 4 -10 -5 0 -1 -4 10 -9 12 -4 -50 -8 -148 -9 -92
-1 -167 2 -166 6 3 18 -2 24 -13 16 -19 -11 -48 -14 -48 -5 0 5 -15 7 -32 5
-27 -2 -29 -1 -13 6 25 12 388 11 406 0z m-479 -5 c-6 -3 -10 -9 -7 -14 7 -11
-337 -1 -349 10 -4 5 77 8 180 9 104 0 183 -3 176 -5z m1390 -4 c13 -5 17 -9
10 -9 -7 -1 -10 -6 -7 -12 8 -13 -381 -11 -407 2 -11 6 -18 5 -21 -4 -3 -6 -4
-2 -4 10 1 21 3 21 204 22 111 0 213 -4 225 -9z m-5127 -40 c-10 -11 -22 -17
-28 -13 -6 4 -7 1 -3 -6 8 -13 -84 -111 -104 -111 -6 0 -8 -4 -5 -10 3 -5 1
-10 -4 -10 -6 0 -11 -7 -11 -16 0 -8 -4 -13 -9 -9 -5 3 -12 -4 -16 -15 -3 -11
-14 -20 -22 -20 -20 0 0 25 168 201 41 43 72 51 34 9z m4597 34 c99 -11 44
-24 -88 -20 -233 7 -230 7 -209 15 26 11 219 14 297 5z m936 -24 c12 -8 -16
-10 -107 -6 -68 3 -146 6 -173 6 -30 0 -48 4 -48 12 0 14 303 3 328 -12z m905
3 c78 -12 10 -23 -155 -23 -166 0 -203 4 -192 21 6 10 289 12 347 2z m-6423
-95 c0 -6 -3 -9 -6 -5 -7 7 -34 -17 -34 -30 0 -4 -16 -21 -35 -36 -20 -16 -32
-33 -29 -39 4 -6 3 -8 -4 -4 -5 3 -13 0 -15 -6 -4 -10 -6 -10 -6 -1 -1 13 108
133 121 133 5 0 8 -5 8 -12z m-532 -286 c8 -13 21 -21 29 -18 8 3 11 2 8 -3
-11 -18 66 -25 92 -8 6 4 14 3 17 -2 18 -28 -102 -22 -140 8 -38 30 -46 7 -9
-25 25 -21 26 -24 8 -24 -11 0 -31 9 -44 21 -13 12 -31 26 -39 33 -21 16 -41
54 -32 60 5 3 23 -8 40 -24 35 -32 55 -23 22 10 -11 11 -18 25 -14 31 6 10 32
-15 62 -59z m250 11 c-14 -16 -23 -34 -20 -42 2 -8 0 -11 -6 -7 -6 3 -13 0
-15 -6 -4 -9 -6 -8 -6 2 -1 15 54 80 66 80 4 0 -5 -12 -19 -27z"/>
<path d="M9488 7653 c29 -2 74 -2 100 0 26 2 2 3 -53 3 -55 0 -76 -1 -47 -3z"/>
<path d="M7740 6935 c0 -10 -10 -15 -30 -15 -28 0 -30 -2 -30 -40 0 -25 5 -40
13 -41 6 0 200 0 430 1 l417 1 0 -229 c0 -126 2 -231 5 -234 3 -3 21 -2 41 1
l36 6 -2 192 c0 119 3 194 9 198 6 3 8 18 5 34 -5 23 -2 29 15 34 16 4 21 13
21 36 0 17 5 31 10 31 6 0 10 4 10 9 0 5 -179 7 -431 3 -394 -5 -432 -4 -441
11 -12 22 -78 24 -78 2z m50 -20 c0 -13 54 -15 430 -15 339 0 429 -3 427 -12
-1 -7 -11 -15 -22 -18 -19 -6 -20 -16 -23 -232 -2 -218 -3 -226 -23 -231 -20
-5 -21 -3 -19 206 1 117 1 222 1 233 l-1 22 -425 -6 -425 -5 0 22 c0 16 6 21
24 21 13 0 26 7 30 15 3 8 10 15 16 15 5 0 10 -7 10 -15z"/>
<path d="M6723 6912 l-243 -2 0 -40 c0 -38 2 -40 30 -40 l30 0 0 -331 0 -330
41 3 41 3 -2 327 -1 328 198 2 198 3 1 40 c2 37 0 40 -24 40 -15 0 -136 -1
-269 -3z m267 -36 c0 -19 -66 -26 -241 -26 l-149 0 0 -325 c0 -318 0 -325 -20
-325 -20 0 -20 7 -20 345 l0 345 215 0 c175 0 215 -3 215 -14z"/>
<path d="M8990 6405 l0 -126 43 3 42 3 3 58 c2 42 7 57 17 57 11 0 15 12 15
40 0 29 -4 40 -15 40 -8 0 -16 5 -16 10 -1 6 -2 16 -3 23 0 7 -19 13 -43 15
l-43 3 0 -126z m51 70 c6 16 8 16 8 4 1 -9 10 -19 21 -22 11 -3 20 -12 20 -21
0 -9 -8 -16 -20 -16 -18 0 -20 -7 -21 -57 -2 -56 -2 -56 -9 -18 l-7 40 -2 -37
c0 -21 -5 -38 -11 -38 -6 0 -10 37 -10 93 1 73 3 88 12 72 11 -19 11 -19 19 0z"/>
<path d="M6103 6483 c-7 -3 -13 -16 -13 -30 0 -15 -3 -23 -7 -20 -12 13 -33
-16 -33 -45 0 -21 6 -31 19 -35 14 -4 21 -15 23 -42 3 -35 4 -36 43 -36 l40 0
0 104 0 104 -30 2 c-16 1 -36 0 -42 -2z m53 -91 c2 -70 -3 -92 -22 -92 -9 0
-14 11 -14 36 0 27 -5 37 -20 41 -26 7 -26 29 1 36 15 4 20 11 15 22 -3 9 -2
13 3 10 5 -3 13 0 16 6 12 19 19 -1 21 -59z"/>
<path d="M8537 5884 c-4 -4 -7 -160 -7 -346 l0 -338 -195 0 -195 0 0 -40 0
-40 208 -1 c263 -1 303 1 322 12 11 8 9 8 -7 4 -29 -8 -33 30 -5 51 15 12 14
13 -10 14 l-28 0 0 340 0 340 -24 0 c-13 0 -31 2 -38 5 -8 3 -17 2 -21 -1z
m43 -36 c0 7 5 10 11 6 9 -5 10 -97 7 -340 -4 -240 -2 -334 6 -335 6 0 6 -3
-1 -6 -7 -2 -13 -11 -13 -18 0 -10 -45 -13 -214 -14 -210 -2 -214 -1 -209 18
5 20 15 21 197 23 l191 3 0 140 c0 346 6 540 15 525 7 -11 10 -11 10 -2z"/>
<path d="M6540 5440 c0 -236 0 -239 -21 -242 -17 -2 -22 -11 -24 -40 -2 -48
-10 -47 275 -42 l235 4 3 41 3 41 -93 -2 c-51 -1 -137 -2 -190 -1 l-98 1 -2
237 -3 236 -42 3 -43 2 0 -238z m40 198 c0 6 5 12 10 12 6 0 10 -81 10 -224 0
-123 3 -231 6 -240 5 -14 32 -16 195 -16 161 0 189 -2 189 -15 0 -13 -30 -15
-209 -15 l-208 0 -7 31 c-10 53 -7 486 4 469 6 -10 10 -11 10 -2z"/>
<path d="M6574 5430 c0 -107 2 -151 3 -97 2 53 2 141 0 195 -1 53 -3 9 -3 -98z"/>
<path d="M9020 5563 c0 -16 -6 -23 -20 -23 -19 0 -20 -7 -20 -157 l0 -158 -33
-19 c-18 -11 -27 -21 -19 -23 19 -7 15 -43 -5 -43 -27 0 -1 -20 30 -22 15 -1
27 -8 27 -15 0 -8 13 -13 35 -13 25 0 35 -4 35 -16 0 -8 5 -12 10 -9 6 4 10
80 10 196 0 184 1 189 21 189 18 0 20 5 17 43 -2 26 -7 41 -15 40 -7 -2 -17 6
-23 17 -6 11 -16 18 -22 14 -5 -4 -14 0 -19 7 -6 10 -9 8 -9 -8z m40 -64 c0
-8 5 -8 15 1 12 10 15 10 15 -4 0 -9 -8 -16 -20 -16 -18 0 -20 -7 -20 -87 0
-108 -11 -160 -21 -98 l-6 40 -2 -50 c-2 -81 -21 -32 -21 56 0 129 9 169 36
169 13 0 24 -5 24 -11z"/>
<path d="M7615 5186 c-19 -65 -9 -79 46 -66 31 7 32 8 7 9 -23 1 -28 6 -28 26
0 24 3 25 63 26 75 1 65 6 -22 11 -39 3 -64 0 -66 -6z"/>
<path d="M4951 6492 c-1 -40 3 -61 9 -57 12 7 12 59 0 95 -6 19 -8 9 -9 -38z"/>
<path d="M4173 4166 c3 -8 -1 -20 -9 -26 -24 -21 -16 -38 43 -84 55 -44 68
-48 68 -23 0 7 8 11 18 11 22 -2 22 8 -3 39 -11 14 -20 30 -20 37 0 6 -4 9 -9
6 -4 -3 -17 4 -27 16 -11 12 -13 18 -6 14 6 -4 12 -2 12 4 0 7 -8 9 -19 5 -11
-3 -22 -1 -26 5 -9 15 -28 12 -22 -4z m22 -46 c-6 -9 8 -14 28 -11 5 1 6 -3 2
-9 -3 -5 2 -10 11 -10 10 0 14 -3 11 -7 -4 -3 -2 -12 4 -20 20 -23 1 -14 -36
18 -29 26 -38 49 -19 49 3 0 2 -4 -1 -10z"/>
<path d="M4007 3976 c-4 -10 0 -12 14 -9 11 3 19 0 19 -7 0 -17 -150 -187
-251 -285 -45 -44 -99 -101 -119 -126 -20 -26 -101 -117 -180 -203 -117 -128
-145 -154 -157 -144 -11 9 -20 5 -45 -19 l-31 -31 22 -27 c11 -15 21 -24 21
-19 0 4 14 -5 30 -21 18 -18 30 -23 30 -15 0 8 12 26 27 42 21 22 24 30 14 41
-13 16 102 151 269 318 48 47 97 101 110 120 13 19 54 66 90 104 37 39 95 102
130 140 35 39 74 77 87 85 30 19 29 34 -2 54 -30 20 -71 21 -78 2z m42 -63
c-103 -116 -312 -333 -258 -268 43 52 272 295 277 295 3 0 -5 -12 -19 -27z
m-400 -430 c-141 -156 -259 -282 -259 -276 0 3 26 34 58 67 31 34 97 105 145
159 49 53 91 97 94 97 3 0 -14 -21 -38 -47z"/>
<path d="M3514 2379 c-12 -14 -25 -18 -41 -14 -26 6 -28 2 -12 -27 10 -19 9
-20 -17 -14 -22 5 -25 4 -13 -4 11 -6 15 -18 12 -35 -4 -17 0 -27 11 -31 9 -3
16 -12 16 -20 0 -16 16 -19 25 -4 4 6 10 8 15 5 5 -3 15 3 21 14 10 15 18 17
37 10 l23 -9 -20 28 -20 28 25 27 c14 15 21 27 17 27 -4 0 -2 5 5 12 7 7 12
17 12 23 0 5 -5 3 -10 -5 -8 -12 -13 -13 -30 -2 -27 16 -34 15 -56 -9z"/>
<path d="M9012 4305 c0 -75 3 -113 8 -100 11 25 11 127 1 180 -6 29 -8 8 -9
-80z"/>
<path d="M10120 4080 l-65 -7 78 -1 c46 -1 77 2 77 8 0 6 -6 9 -12 8 -7 -1
-42 -4 -78 -8z"/>
<path d="M1854 3002 c-207 -222 -304 -330 -303 -338 1 -14 354 -319 364 -315
6 2 46 42 89 90 44 47 83 85 88 83 5 -1 7 1 4 6 -2 4 47 64 110 132 l116 125
-39 35 c-21 19 -74 67 -118 105 -43 39 -102 90 -129 115 -28 25 -58 51 -67 58
-13 10 -31 -6 -115 -96z m271 -76 c85 -76 155 -142 155 -145 -1 -10 -361 -401
-369 -401 -3 0 -58 46 -121 103 -64 56 -138 120 -165 143 l-49 41 115 124 c63
68 146 158 184 200 39 43 76 77 82 76 7 -1 82 -65 168 -141z"/>
<path d="M6100 2768 c0 -4 16 -8 35 -8 19 0 35 4 35 10 0 5 -16 9 -35 8 -19
-1 -35 -5 -35 -10z"/>
<path d="M8023 2753 c20 -2 54 -2 75 0 20 2 3 4 -38 4 -41 0 -58 -2 -37 -4z"/>
<path d="M8923 2743 c32 -2 81 -2 110 0 29 2 3 3 -58 3 -60 0 -84 -1 -52 -3z"/>
<path d="M9878 2733 c23 -2 61 -2 85 0 23 2 4 4 -43 4 -47 0 -66 -2 -42 -4z"/>
<path d="M5845 2550 c-4 -6 12 -10 40 -10 28 0 44 4 40 10 -3 6 -21 10 -40 10
-19 0 -37 -4 -40 -10z"/>
<path d="M7173 2415 c0 -44 2 -61 4 -37 2 23 2 59 0 80 -2 20 -4 1 -4 -43z"/>
<path d="M11420 2465 c0 -19 5 -35 10 -35 6 0 10 16 10 35 0 19 -4 35 -10 35
-5 0 -10 -16 -10 -35z"/>
<path d="M11380 2190 c0 -58 19 -69 21 -12 l2 37 6 -39 c10 -63 31 -58 31 8 0
56 0 56 -30 56 -29 0 -30 -1 -30 -50z"/>
<path d="M11613 2228 c2 -7 12 -13 22 -13 10 0 20 6 23 13 2 7 -6 12 -23 12
-17 0 -25 -5 -22 -12z"/>
<path d="M10764 2065 c0 -77 2 -107 3 -67 2 40 2 103 0 140 -2 37 -3 4 -3 -73z"/>
<path d="M11380 2026 c0 -57 4 -96 10 -96 6 0 10 36 10 89 0 50 -4 93 -10 96
-6 4 -10 -28 -10 -89z"/>
<path d="M11416 2094 c-14 -35 -7 -154 9 -154 12 0 15 15 15 79 0 76 -11 109
-24 75z"/>
<path d="M11780 2015 c0 -30 5 -55 10 -55 6 0 10 25 10 55 0 30 -4 55 -10 55
-5 0 -10 -25 -10 -55z"/>
<path d="M11415 1888 c-2 -7 -6 -40 -8 -73 l-3 -60 -2 68 c-3 86 -22 89 -22 2
0 -38 -4 -65 -10 -65 -7 0 -7 -6 0 -19 7 -14 18 -19 37 -16 16 2 45 4 66 4 45
1 41 21 -4 21 l-29 0 0 69 c0 64 -13 101 -25 69z"/>
<path d="M11600 1744 c-16 -5 -24 -94 -8 -94 4 0 8 18 8 39 l0 40 36 -6 c29
-5 36 -3 32 8 -5 14 -40 21 -68 13z"/>
<path d="M5982 1562 c-12 -2 -20 -8 -17 -13 8 -12 62 -12 69 0 7 11 -21 18
-52 13z"/>
<path d="M9759 1279 c-9 -6 4 -9 40 -9 30 0 52 2 50 5 -10 10 -76 13 -90 4z"/>
<path d="M11093 1263 c7 -11 117 -16 117 -6 0 5 -27 9 -61 11 -34 2 -59 -1
-56 -5z"/>
<path d="M6461 3904 c-37 -46 -27 -59 14 -18 17 17 23 30 17 36 -6 6 -17 -1
-31 -18z"/>
<path d="M11888 1478 c-4 -10 4 -20 28 -32 46 -21 52 -20 26 4 -12 11 -25 20
-31 20 -5 0 -11 5 -13 12 -3 8 -6 7 -10 -4z"/>
<path d="M11681 1156 c9 -66 18 -96 29 -96 4 0 2 21 -6 47 -8 25 -14 59 -14
75 0 15 -4 28 -8 28 -5 0 -5 -24 -1 -54z"/>
<path d="M3806 645 c11 -17 12 -25 5 -25 -7 0 -9 -4 -6 -10 10 -16 -12 -12
-29 5 -23 23 -28 18 -10 -10 11 -17 12 -25 5 -25 -7 0 -9 -4 -6 -10 12 -19
-14 -10 -44 16 -17 14 -31 21 -31 15 0 -6 4 -11 8 -11 4 0 15 -12 24 -28 16
-27 16 -28 -22 -71 l-39 -44 -56 47 c-62 53 -61 53 -39 85 l17 23 -27 -17
c-21 -14 -29 -15 -41 -5 -15 12 -14 14 23 55 23 26 -1 16 -30 -12 -24 -23 -30
-25 -38 -13 -5 8 -10 10 -10 5 0 -6 32 -40 72 -75 40 -36 83 -75 96 -87 12
-13 26 -23 31 -23 6 0 118 113 195 198 32 35 30 51 -3 30 -16 -10 -23 -10 -33
0 -21 21 -29 13 -12 -13z"/>
</g>
</svg>
